<svg xmlns="http://www.w3.org/2000/svg" width="920" height="620" viewBox="0 0 920 620">
<rect width="100%" height="100%" fill="white"/>
<text x="90" y="32" font-size="22" font-weight="bold" fill="#222222">Distorted/Prebound Time To 100 Entities</text>
<text x="90" y="52" font-size="12" fill="#222222">Repeated runs per Zr, stopping when 100 entities is reached or the large step cap is hit.</text>
<text x="90" y="54" font-size="15" font-weight="bold" fill="#222222">Mean Time To 100</text>
<line x1="90" y1="260.00" x2="430" y2="260.00" stroke="#d9d9d9" stroke-width="1"/>
<text x="80" y="264.00" text-anchor="end" font-size="11" fill="#222222">0.00</text>
<line x1="90" y1="212.50" x2="430" y2="212.50" stroke="#d9d9d9" stroke-width="1"/>
<text x="80" y="216.50" text-anchor="end" font-size="11" fill="#222222">17.14</text>
<line x1="90" y1="165.00" x2="430" y2="165.00" stroke="#d9d9d9" stroke-width="1"/>
<text x="80" y="169.00" text-anchor="end" font-size="11" fill="#222222">34.28</text>
<line x1="90" y1="117.50" x2="430" y2="117.50" stroke="#d9d9d9" stroke-width="1"/>
<text x="80" y="121.50" text-anchor="end" font-size="11" fill="#222222">51.42</text>
<line x1="90" y1="70.00" x2="430" y2="70.00" stroke="#d9d9d9" stroke-width="1"/>
<text x="80" y="74.00" text-anchor="end" font-size="11" fill="#222222">68.56</text>
<line x1="90.00" y1="70" x2="90.00" y2="260" stroke="#d9d9d9" stroke-width="1"/>
<text x="90.00" y="278" text-anchor="middle" font-size="11" fill="#222222">7</text>
<line x1="111.25" y1="70" x2="111.25" y2="260" stroke="#d9d9d9" stroke-width="1"/>
<text x="111.25" y="278" text-anchor="middle" font-size="11" fill="#222222">8</text>
<line x1="153.75" y1="70" x2="153.75" y2="260" stroke="#d9d9d9" stroke-width="1"/>
<text x="153.75" y="278" text-anchor="middle" font-size="11" fill="#222222">10</text>
<line x1="175.00" y1="70" x2="175.00" y2="260" stroke="#d9d9d9" stroke-width="1"/>
<text x="175.00" y="278" text-anchor="middle" font-size="11" fill="#222222">11</text>
<line x1="217.50" y1="70" x2="217.50" y2="260" stroke="#d9d9d9" stroke-width="1"/>
<text x="217.50" y="278" text-anchor="middle" font-size="11" fill="#222222">13</text>
<line x1="238.75" y1="70" x2="238.75" y2="260" stroke="#d9d9d9" stroke-width="1"/>
<text x="238.75" y="278" text-anchor="middle" font-size="11" fill="#222222">14</text>
<line x1="260.00" y1="70" x2="260.00" y2="260" stroke="#d9d9d9" stroke-width="1"/>
<text x="260.00" y="278" text-anchor="middle" font-size="11" fill="#222222">15</text>
<line x1="302.50" y1="70" x2="302.50" y2="260" stroke="#d9d9d9" stroke-width="1"/>
<text x="302.50" y="278" text-anchor="middle" font-size="11" fill="#222222">17</text>
<line x1="323.75" y1="70" x2="323.75" y2="260" stroke="#d9d9d9" stroke-width="1"/>
<text x="323.75" y="278" text-anchor="middle" font-size="11" fill="#222222">18</text>
<line x1="345.00" y1="70" x2="345.00" y2="260" stroke="#d9d9d9" stroke-width="1"/>
<text x="345.00" y="278" text-anchor="middle" font-size="11" fill="#222222">19</text>
<line x1="387.50" y1="70" x2="387.50" y2="260" stroke="#d9d9d9" stroke-width="1"/>
<text x="387.50" y="278" text-anchor="middle" font-size="11" fill="#222222">21</text>
<line x1="408.75" y1="70" x2="408.75" y2="260" stroke="#d9d9d9" stroke-width="1"/>
<text x="408.75" y="278" text-anchor="middle" font-size="11" fill="#222222">22</text>
<line x1="430.00" y1="70" x2="430.00" y2="260" stroke="#d9d9d9" stroke-width="1"/>
<text x="430.00" y="278" text-anchor="middle" font-size="11" fill="#222222">23</text>
<line x1="90" y1="260" x2="430" y2="260" stroke="#333333" stroke-width="1.3"/>
<line x1="90" y1="70" x2="90" y2="260" stroke="#333333" stroke-width="1.3"/>
<text x="260.00" y="300" text-anchor="middle" font-size="12" fill="#222222">Total Zr concentration (mM)</text>
<text x="38" y="165.00" transform="rotate(-90 38 165.00)" text-anchor="middle" font-size="12" fill="#222222">Time to 100 (s)</text>
<circle cx="90.00" cy="159.78" r="4.5" fill="#d95f02"/>
<circle cx="111.25" cy="169.41" r="4.5" fill="#d95f02"/>
<circle cx="153.75" cy="156.81" r="4.5" fill="#d95f02"/>
<circle cx="175.00" cy="152.72" r="4.5" fill="#d95f02"/>
<circle cx="217.50" cy="152.09" r="4.5" fill="#d95f02"/>
<circle cx="238.75" cy="158.34" r="4.5" fill="#d95f02"/>
<circle cx="260.00" cy="125.43" r="4.5" fill="#d95f02"/>
<circle cx="302.50" cy="195.57" r="4.5" fill="#d95f02"/>
<circle cx="323.75" cy="178.55" r="4.5" fill="#d95f02"/>
<circle cx="345.00" cy="141.78" r="4.5" fill="#d95f02"/>
<circle cx="387.50" cy="131.77" r="4.5" fill="#d95f02"/>
<circle cx="408.75" cy="168.08" r="4.5" fill="#d95f02"/>
<circle cx="430.00" cy="148.88" r="4.5" fill="#d95f02"/>
<polyline fill="none" stroke="#d95f02" stroke-width="2.5" points="90.00,159.78 111.25,169.41 153.75,156.81 175.00,152.72 217.50,152.09 238.75,158.34 260.00,125.43 302.50,195.57 323.75,178.55 345.00,141.78 387.50,131.77 408.75,168.08 430.00,148.88"/>
<text x="520" y="54" font-size="15" font-weight="bold" fill="#222222">Reach Fraction To 100</text>
<line x1="520" y1="260.00" x2="860" y2="260.00" stroke="#d9d9d9" stroke-width="1"/>
<text x="510" y="264.00" text-anchor="end" font-size="11" fill="#222222">0.00</text>
<line x1="520" y1="212.50" x2="860" y2="212.50" stroke="#d9d9d9" stroke-width="1"/>
<text x="510" y="216.50" text-anchor="end" font-size="11" fill="#222222">0.25</text>
<line x1="520" y1="165.00" x2="860" y2="165.00" stroke="#d9d9d9" stroke-width="1"/>
<text x="510" y="169.00" text-anchor="end" font-size="11" fill="#222222">0.50</text>
<line x1="520" y1="117.50" x2="860" y2="117.50" stroke="#d9d9d9" stroke-width="1"/>
<text x="510" y="121.50" text-anchor="end" font-size="11" fill="#222222">0.75</text>
<line x1="520" y1="70.00" x2="860" y2="70.00" stroke="#d9d9d9" stroke-width="1"/>
<text x="510" y="74.00" text-anchor="end" font-size="11" fill="#222222">1.00</text>
<line x1="520.00" y1="70" x2="520.00" y2="260" stroke="#d9d9d9" stroke-width="1"/>
<text x="520.00" y="278" text-anchor="middle" font-size="11" fill="#222222">7</text>
<line x1="541.25" y1="70" x2="541.25" y2="260" stroke="#d9d9d9" stroke-width="1"/>
<text x="541.25" y="278" text-anchor="middle" font-size="11" fill="#222222">8</text>
<line x1="583.75" y1="70" x2="583.75" y2="260" stroke="#d9d9d9" stroke-width="1"/>
<text x="583.75" y="278" text-anchor="middle" font-size="11" fill="#222222">10</text>
<line x1="605.00" y1="70" x2="605.00" y2="260" stroke="#d9d9d9" stroke-width="1"/>
<text x="605.00" y="278" text-anchor="middle" font-size="11" fill="#222222">11</text>
<line x1="647.50" y1="70" x2="647.50" y2="260" stroke="#d9d9d9" stroke-width="1"/>
<text x="647.50" y="278" text-anchor="middle" font-size="11" fill="#222222">13</text>
<line x1="668.75" y1="70" x2="668.75" y2="260" stroke="#d9d9d9" stroke-width="1"/>
<text x="668.75" y="278" text-anchor="middle" font-size="11" fill="#222222">14</text>
<line x1="690.00" y1="70" x2="690.00" y2="260" stroke="#d9d9d9" stroke-width="1"/>
<text x="690.00" y="278" text-anchor="middle" font-size="11" fill="#222222">15</text>
<line x1="732.50" y1="70" x2="732.50" y2="260" stroke="#d9d9d9" stroke-width="1"/>
<text x="732.50" y="278" text-anchor="middle" font-size="11" fill="#222222">17</text>
<line x1="753.75" y1="70" x2="753.75" y2="260" stroke="#d9d9d9" stroke-width="1"/>
<text x="753.75" y="278" text-anchor="middle" font-size="11" fill="#222222">18</text>
<line x1="775.00" y1="70" x2="775.00" y2="260" stroke="#d9d9d9" stroke-width="1"/>
<text x="775.00" y="278" text-anchor="middle" font-size="11" fill="#222222">19</text>
<line x1="817.50" y1="70" x2="817.50" y2="260" stroke="#d9d9d9" stroke-width="1"/>
<text x="817.50" y="278" text-anchor="middle" font-size="11" fill="#222222">21</text>
<line x1="838.75" y1="70" x2="838.75" y2="260" stroke="#d9d9d9" stroke-width="1"/>
<text x="838.75" y="278" text-anchor="middle" font-size="11" fill="#222222">22</text>
<line x1="860.00" y1="70" x2="860.00" y2="260" stroke="#d9d9d9" stroke-width="1"/>
<text x="860.00" y="278" text-anchor="middle" font-size="11" fill="#222222">23</text>
<line x1="520" y1="260" x2="860" y2="260" stroke="#333333" stroke-width="1.3"/>
<line x1="520" y1="70" x2="520" y2="260" stroke="#333333" stroke-width="1.3"/>
<text x="690.00" y="300" text-anchor="middle" font-size="12" fill="#222222">Total Zr concentration (mM)</text>
<text x="468" y="165.00" transform="rotate(-90 468 165.00)" text-anchor="middle" font-size="12" fill="#222222">Reach fraction</text>
<circle cx="520.00" cy="70.00" r="4.5" fill="#d95f02"/>
<circle cx="541.25" cy="70.00" r="4.5" fill="#d95f02"/>
<circle cx="583.75" cy="70.00" r="4.5" fill="#d95f02"/>
<circle cx="605.00" cy="70.00" r="4.5" fill="#d95f02"/>
<circle cx="647.50" cy="70.00" r="4.5" fill="#d95f02"/>
<circle cx="668.75" cy="70.00" r="4.5" fill="#d95f02"/>
<circle cx="690.00" cy="70.00" r="4.5" fill="#d95f02"/>
<circle cx="732.50" cy="70.00" r="4.5" fill="#d95f02"/>
<circle cx="753.75" cy="70.00" r="4.5" fill="#d95f02"/>
<circle cx="775.00" cy="70.00" r="4.5" fill="#d95f02"/>
<circle cx="817.50" cy="70.00" r="4.5" fill="#d95f02"/>
<circle cx="838.75" cy="70.00" r="4.5" fill="#d95f02"/>
<circle cx="860.00" cy="70.00" r="4.5" fill="#d95f02"/>
<polyline fill="none" stroke="#d95f02" stroke-width="2.5" points="520.00,70.00 541.25,70.00 583.75,70.00 605.00,70.00 647.50,70.00 668.75,70.00 690.00,70.00 732.50,70.00 753.75,70.00 775.00,70.00 817.50,70.00 838.75,70.00 860.00,70.00"/>
<text x="90" y="334" font-size="15" font-weight="bold" fill="#222222">Mean Final Entities</text>
<line x1="90" y1="540.00" x2="430" y2="540.00" stroke="#d9d9d9" stroke-width="1"/>
<text x="80" y="544.00" text-anchor="end" font-size="11" fill="#222222">0.00</text>
<line x1="90" y1="492.50" x2="430" y2="492.50" stroke="#d9d9d9" stroke-width="1"/>
<text x="80" y="496.50" text-anchor="end" font-size="11" fill="#222222">25.29</text>
<line x1="90" y1="445.00" x2="430" y2="445.00" stroke="#d9d9d9" stroke-width="1"/>
<text x="80" y="449.00" text-anchor="end" font-size="11" fill="#222222">50.58</text>
<line x1="90" y1="397.50" x2="430" y2="397.50" stroke="#d9d9d9" stroke-width="1"/>
<text x="80" y="401.50" text-anchor="end" font-size="11" fill="#222222">75.88</text>
<line x1="90" y1="350.00" x2="430" y2="350.00" stroke="#d9d9d9" stroke-width="1"/>
<text x="80" y="354.00" text-anchor="end" font-size="11" fill="#222222">101.17</text>
<line x1="90.00" y1="350" x2="90.00" y2="540" stroke="#d9d9d9" stroke-width="1"/>
<text x="90.00" y="558" text-anchor="middle" font-size="11" fill="#222222">7</text>
<line x1="111.25" y1="350" x2="111.25" y2="540" stroke="#d9d9d9" stroke-width="1"/>
<text x="111.25" y="558" text-anchor="middle" font-size="11" fill="#222222">8</text>
<line x1="153.75" y1="350" x2="153.75" y2="540" stroke="#d9d9d9" stroke-width="1"/>
<text x="153.75" y="558" text-anchor="middle" font-size="11" fill="#222222">10</text>
<line x1="175.00" y1="350" x2="175.00" y2="540" stroke="#d9d9d9" stroke-width="1"/>
<text x="175.00" y="558" text-anchor="middle" font-size="11" fill="#222222">11</text>
<line x1="217.50" y1="350" x2="217.50" y2="540" stroke="#d9d9d9" stroke-width="1"/>
<text x="217.50" y="558" text-anchor="middle" font-size="11" fill="#222222">13</text>
<line x1="238.75" y1="350" x2="238.75" y2="540" stroke="#d9d9d9" stroke-width="1"/>
<text x="238.75" y="558" text-anchor="middle" font-size="11" fill="#222222">14</text>
<line x1="260.00" y1="350" x2="260.00" y2="540" stroke="#d9d9d9" stroke-width="1"/>
<text x="260.00" y="558" text-anchor="middle" font-size="11" fill="#222222">15</text>
<line x1="302.50" y1="350" x2="302.50" y2="540" stroke="#d9d9d9" stroke-width="1"/>
<text x="302.50" y="558" text-anchor="middle" font-size="11" fill="#222222">17</text>
<line x1="323.75" y1="350" x2="323.75" y2="540" stroke="#d9d9d9" stroke-width="1"/>
<text x="323.75" y="558" text-anchor="middle" font-size="11" fill="#222222">18</text>
<line x1="345.00" y1="350" x2="345.00" y2="540" stroke="#d9d9d9" stroke-width="1"/>
<text x="345.00" y="558" text-anchor="middle" font-size="11" fill="#222222">19</text>
<line x1="387.50" y1="350" x2="387.50" y2="540" stroke="#d9d9d9" stroke-width="1"/>
<text x="387.50" y="558" text-anchor="middle" font-size="11" fill="#222222">21</text>
<line x1="408.75" y1="350" x2="408.75" y2="540" stroke="#d9d9d9" stroke-width="1"/>
<text x="408.75" y="558" text-anchor="middle" font-size="11" fill="#222222">22</text>
<line x1="430.00" y1="350" x2="430.00" y2="540" stroke="#d9d9d9" stroke-width="1"/>
<text x="430.00" y="558" text-anchor="middle" font-size="11" fill="#222222">23</text>
<line x1="90" y1="540" x2="430" y2="540" stroke="#333333" stroke-width="1.3"/>
<line x1="90" y1="350" x2="90" y2="540" stroke="#333333" stroke-width="1.3"/>
<text x="260.00" y="580" text-anchor="middle" font-size="12" fill="#222222">Total Zr concentration (mM)</text>
<text x="38" y="445.00" transform="rotate(-90 38 445.00)" text-anchor="middle" font-size="12" fill="#222222">Final entities</text>
<circle cx="90.00" cy="351.88" r="4.5" fill="#d95f02"/>
<circle cx="111.25" cy="351.96" r="4.5" fill="#d95f02"/>
<circle cx="153.75" cy="352.03" r="4.5" fill="#d95f02"/>
<circle cx="175.00" cy="352.03" r="4.5" fill="#d95f02"/>
<circle cx="217.50" cy="351.96" r="4.5" fill="#d95f02"/>
<circle cx="238.75" cy="352.03" r="4.5" fill="#d95f02"/>
<circle cx="260.00" cy="352.11" r="4.5" fill="#d95f02"/>
<circle cx="302.50" cy="351.96" r="4.5" fill="#d95f02"/>
<circle cx="323.75" cy="352.19" r="4.5" fill="#d95f02"/>
<circle cx="345.00" cy="351.96" r="4.5" fill="#d95f02"/>
<circle cx="387.50" cy="352.03" r="4.5" fill="#d95f02"/>
<circle cx="408.75" cy="351.96" r="4.5" fill="#d95f02"/>
<circle cx="430.00" cy="352.11" r="4.5" fill="#d95f02"/>
<polyline fill="none" stroke="#d95f02" stroke-width="2.5" points="90.00,351.88 111.25,351.96 153.75,352.03 175.00,352.03 217.50,351.96 238.75,352.03 260.00,352.11 302.50,351.96 323.75,352.19 345.00,351.96 387.50,352.03 408.75,351.96 430.00,352.11"/>
<text x="520" y="334" font-size="15" font-weight="bold" fill="#222222">Mean Prebound Fraction</text>
<line x1="520" y1="540.00" x2="860" y2="540.00" stroke="#d9d9d9" stroke-width="1"/>
<text x="510" y="544.00" text-anchor="end" font-size="11" fill="#222222">0.00</text>
<line x1="520" y1="492.50" x2="860" y2="492.50" stroke="#d9d9d9" stroke-width="1"/>
<text x="510" y="496.50" text-anchor="end" font-size="11" fill="#222222">0.01</text>
<line x1="520" y1="445.00" x2="860" y2="445.00" stroke="#d9d9d9" stroke-width="1"/>
<text x="510" y="449.00" text-anchor="end" font-size="11" fill="#222222">0.03</text>
<line x1="520" y1="397.50" x2="860" y2="397.50" stroke="#d9d9d9" stroke-width="1"/>
<text x="510" y="401.50" text-anchor="end" font-size="11" fill="#222222">0.04</text>
<line x1="520" y1="350.00" x2="860" y2="350.00" stroke="#d9d9d9" stroke-width="1"/>
<text x="510" y="354.00" text-anchor="end" font-size="11" fill="#222222">0.06</text>
<line x1="520.00" y1="350" x2="520.00" y2="540" stroke="#d9d9d9" stroke-width="1"/>
<text x="520.00" y="558" text-anchor="middle" font-size="11" fill="#222222">7</text>
<line x1="541.25" y1="350" x2="541.25" y2="540" stroke="#d9d9d9" stroke-width="1"/>
<text x="541.25" y="558" text-anchor="middle" font-size="11" fill="#222222">8</text>
<line x1="583.75" y1="350" x2="583.75" y2="540" stroke="#d9d9d9" stroke-width="1"/>
<text x="583.75" y="558" text-anchor="middle" font-size="11" fill="#222222">10</text>
<line x1="605.00" y1="350" x2="605.00" y2="540" stroke="#d9d9d9" stroke-width="1"/>
<text x="605.00" y="558" text-anchor="middle" font-size="11" fill="#222222">11</text>
<line x1="647.50" y1="350" x2="647.50" y2="540" stroke="#d9d9d9" stroke-width="1"/>
<text x="647.50" y="558" text-anchor="middle" font-size="11" fill="#222222">13</text>
<line x1="668.75" y1="350" x2="668.75" y2="540" stroke="#d9d9d9" stroke-width="1"/>
<text x="668.75" y="558" text-anchor="middle" font-size="11" fill="#222222">14</text>
<line x1="690.00" y1="350" x2="690.00" y2="540" stroke="#d9d9d9" stroke-width="1"/>
<text x="690.00" y="558" text-anchor="middle" font-size="11" fill="#222222">15</text>
<line x1="732.50" y1="350" x2="732.50" y2="540" stroke="#d9d9d9" stroke-width="1"/>
<text x="732.50" y="558" text-anchor="middle" font-size="11" fill="#222222">17</text>
<line x1="753.75" y1="350" x2="753.75" y2="540" stroke="#d9d9d9" stroke-width="1"/>
<text x="753.75" y="558" text-anchor="middle" font-size="11" fill="#222222">18</text>
<line x1="775.00" y1="350" x2="775.00" y2="540" stroke="#d9d9d9" stroke-width="1"/>
<text x="775.00" y="558" text-anchor="middle" font-size="11" fill="#222222">19</text>
<line x1="817.50" y1="350" x2="817.50" y2="540" stroke="#d9d9d9" stroke-width="1"/>
<text x="817.50" y="558" text-anchor="middle" font-size="11" fill="#222222">21</text>
<line x1="838.75" y1="350" x2="838.75" y2="540" stroke="#d9d9d9" stroke-width="1"/>
<text x="838.75" y="558" text-anchor="middle" font-size="11" fill="#222222">22</text>
<line x1="860.00" y1="350" x2="860.00" y2="540" stroke="#d9d9d9" stroke-width="1"/>
<text x="860.00" y="558" text-anchor="middle" font-size="11" fill="#222222">23</text>
<line x1="520" y1="540" x2="860" y2="540" stroke="#333333" stroke-width="1.3"/>
<line x1="520" y1="350" x2="520" y2="540" stroke="#333333" stroke-width="1.3"/>
<text x="690.00" y="580" text-anchor="middle" font-size="12" fill="#222222">Total Zr concentration (mM)</text>
<text x="468" y="445.00" transform="rotate(-90 468 445.00)" text-anchor="middle" font-size="12" fill="#222222">Prebound fraction</text>
<circle cx="520.00" cy="500.85" r="4.5" fill="#2a9d8f"/>
<circle cx="541.25" cy="495.34" r="4.5" fill="#2a9d8f"/>
<circle cx="583.75" cy="484.36" r="4.5" fill="#2a9d8f"/>
<circle cx="605.00" cy="478.90" r="4.5" fill="#2a9d8f"/>
<circle cx="647.50" cy="468.03" r="4.5" fill="#2a9d8f"/>
<circle cx="668.75" cy="462.63" r="4.5" fill="#2a9d8f"/>
<circle cx="690.00" cy="457.24" r="4.5" fill="#2a9d8f"/>
<circle cx="732.50" cy="446.52" r="4.5" fill="#2a9d8f"/>
<circle cx="753.75" cy="441.19" r="4.5" fill="#2a9d8f"/>
<circle cx="775.00" cy="435.87" r="4.5" fill="#2a9d8f"/>
<circle cx="817.50" cy="425.29" r="4.5" fill="#2a9d8f"/>
<circle cx="838.75" cy="420.03" r="4.5" fill="#2a9d8f"/>
<circle cx="860.00" cy="414.78" r="4.5" fill="#2a9d8f"/>
<polyline fill="none" stroke="#2a9d8f" stroke-width="2.5" points="520.00,500.85 541.25,495.34 583.75,484.36 605.00,478.90 647.50,468.03 668.75,462.63 690.00,457.24 732.50,446.52 753.75,441.19 775.00,435.87 817.50,425.29 838.75,420.03 860.00,414.78"/>
</svg>