<svg xmlns="http://www.w3.org/2000/svg" width="920" height="620" viewBox="0 0 920 620">
<rect width="100%" height="100%" fill="white"/>
<text x="90" y="32" font-size="22" font-weight="bold" fill="#222222">Distorted/Prebound Time To 100 Entities</text>
<text x="90" y="52" font-size="12" fill="#222222">Repeated runs per Zr, stopping when 100 entities is reached or the large step cap is hit.</text>
<text x="90" y="54" font-size="15" font-weight="bold" fill="#222222">Mean Time To 100</text>
<line x1="90" y1="260.00" x2="430" y2="260.00" stroke="#d9d9d9" stroke-width="1"/>
<text x="80" y="264.00" text-anchor="end" font-size="11" fill="#222222">0.00</text>
<line x1="90" y1="212.50" x2="430" y2="212.50" stroke="#d9d9d9" stroke-width="1"/>
<text x="80" y="216.50" text-anchor="end" font-size="11" fill="#222222">18.23</text>
<line x1="90" y1="165.00" x2="430" y2="165.00" stroke="#d9d9d9" stroke-width="1"/>
<text x="80" y="169.00" text-anchor="end" font-size="11" fill="#222222">36.45</text>
<line x1="90" y1="117.50" x2="430" y2="117.50" stroke="#d9d9d9" stroke-width="1"/>
<text x="80" y="121.50" text-anchor="end" font-size="11" fill="#222222">54.68</text>
<line x1="90" y1="70.00" x2="430" y2="70.00" stroke="#d9d9d9" stroke-width="1"/>
<text x="80" y="74.00" text-anchor="end" font-size="11" fill="#222222">72.91</text>
<line x1="90.00" y1="70" x2="90.00" y2="260" stroke="#d9d9d9" stroke-width="1"/>
<text x="90.00" y="278" text-anchor="middle" font-size="11" fill="#222222">20</text>
<line x1="146.67" y1="70" x2="146.67" y2="260" stroke="#d9d9d9" stroke-width="1"/>
<text x="146.67" y="278" text-anchor="middle" font-size="11" fill="#222222">24</text>
<line x1="203.33" y1="70" x2="203.33" y2="260" stroke="#d9d9d9" stroke-width="1"/>
<text x="203.33" y="278" text-anchor="middle" font-size="11" fill="#222222">28</text>
<line x1="260.00" y1="70" x2="260.00" y2="260" stroke="#d9d9d9" stroke-width="1"/>
<text x="260.00" y="278" text-anchor="middle" font-size="11" fill="#222222">32</text>
<line x1="316.67" y1="70" x2="316.67" y2="260" stroke="#d9d9d9" stroke-width="1"/>
<text x="316.67" y="278" text-anchor="middle" font-size="11" fill="#222222">36</text>
<line x1="373.33" y1="70" x2="373.33" y2="260" stroke="#d9d9d9" stroke-width="1"/>
<text x="373.33" y="278" text-anchor="middle" font-size="11" fill="#222222">40</text>
<line x1="430.00" y1="70" x2="430.00" y2="260" stroke="#d9d9d9" stroke-width="1"/>
<text x="430.00" y="278" text-anchor="middle" font-size="11" fill="#222222">44</text>
<line x1="90" y1="260" x2="430" y2="260" stroke="#333333" stroke-width="1.3"/>
<line x1="90" y1="70" x2="90" y2="260" stroke="#333333" stroke-width="1.3"/>
<text x="260.00" y="300" text-anchor="middle" font-size="12" fill="#222222">Total Zr concentration (mM)</text>
<text x="38" y="165.00" transform="rotate(-90 38 165.00)" text-anchor="middle" font-size="12" fill="#222222">Time to 100 (s)</text>
<circle cx="90.00" cy="164.09" r="4.5" fill="#d95f02"/>
<circle cx="146.67" cy="169.02" r="4.5" fill="#d95f02"/>
<circle cx="203.33" cy="148.81" r="4.5" fill="#d95f02"/>
<circle cx="260.00" cy="155.92" r="4.5" fill="#d95f02"/>
<circle cx="316.67" cy="147.58" r="4.5" fill="#d95f02"/>
<circle cx="373.33" cy="129.67" r="4.5" fill="#d95f02"/>
<circle cx="430.00" cy="122.12" r="4.5" fill="#d95f02"/>
<polyline fill="none" stroke="#d95f02" stroke-width="2.5" points="90.00,164.09 146.67,169.02 203.33,148.81 260.00,155.92 316.67,147.58 373.33,129.67 430.00,122.12"/>
<text x="520" y="54" font-size="15" font-weight="bold" fill="#222222">Reach Fraction To 100</text>
<line x1="520" y1="260.00" x2="860" y2="260.00" stroke="#d9d9d9" stroke-width="1"/>
<text x="510" y="264.00" text-anchor="end" font-size="11" fill="#222222">0.00</text>
<line x1="520" y1="212.50" x2="860" y2="212.50" stroke="#d9d9d9" stroke-width="1"/>
<text x="510" y="216.50" text-anchor="end" font-size="11" fill="#222222">0.25</text>
<line x1="520" y1="165.00" x2="860" y2="165.00" stroke="#d9d9d9" stroke-width="1"/>
<text x="510" y="169.00" text-anchor="end" font-size="11" fill="#222222">0.50</text>
<line x1="520" y1="117.50" x2="860" y2="117.50" stroke="#d9d9d9" stroke-width="1"/>
<text x="510" y="121.50" text-anchor="end" font-size="11" fill="#222222">0.75</text>
<line x1="520" y1="70.00" x2="860" y2="70.00" stroke="#d9d9d9" stroke-width="1"/>
<text x="510" y="74.00" text-anchor="end" font-size="11" fill="#222222">1.00</text>
<line x1="520.00" y1="70" x2="520.00" y2="260" stroke="#d9d9d9" stroke-width="1"/>
<text x="520.00" y="278" text-anchor="middle" font-size="11" fill="#222222">20</text>
<line x1="576.67" y1="70" x2="576.67" y2="260" stroke="#d9d9d9" stroke-width="1"/>
<text x="576.67" y="278" text-anchor="middle" font-size="11" fill="#222222">24</text>
<line x1="633.33" y1="70" x2="633.33" y2="260" stroke="#d9d9d9" stroke-width="1"/>
<text x="633.33" y="278" text-anchor="middle" font-size="11" fill="#222222">28</text>
<line x1="690.00" y1="70" x2="690.00" y2="260" stroke="#d9d9d9" stroke-width="1"/>
<text x="690.00" y="278" text-anchor="middle" font-size="11" fill="#222222">32</text>
<line x1="746.67" y1="70" x2="746.67" y2="260" stroke="#d9d9d9" stroke-width="1"/>
<text x="746.67" y="278" text-anchor="middle" font-size="11" fill="#222222">36</text>
<line x1="803.33" y1="70" x2="803.33" y2="260" stroke="#d9d9d9" stroke-width="1"/>
<text x="803.33" y="278" text-anchor="middle" font-size="11" fill="#222222">40</text>
<line x1="860.00" y1="70" x2="860.00" y2="260" stroke="#d9d9d9" stroke-width="1"/>
<text x="860.00" y="278" text-anchor="middle" font-size="11" fill="#222222">44</text>
<line x1="520" y1="260" x2="860" y2="260" stroke="#333333" stroke-width="1.3"/>
<line x1="520" y1="70" x2="520" y2="260" stroke="#333333" stroke-width="1.3"/>
<text x="690.00" y="300" text-anchor="middle" font-size="12" fill="#222222">Total Zr concentration (mM)</text>
<text x="468" y="165.00" transform="rotate(-90 468 165.00)" text-anchor="middle" font-size="12" fill="#222222">Reach fraction</text>
<circle cx="520.00" cy="70.00" r="4.5" fill="#d95f02"/>
<circle cx="576.67" cy="70.00" r="4.5" fill="#d95f02"/>
<circle cx="633.33" cy="70.00" r="4.5" fill="#d95f02"/>
<circle cx="690.00" cy="70.00" r="4.5" fill="#d95f02"/>
<circle cx="746.67" cy="70.00" r="4.5" fill="#d95f02"/>
<circle cx="803.33" cy="70.00" r="4.5" fill="#d95f02"/>
<circle cx="860.00" cy="70.00" r="4.5" fill="#d95f02"/>
<polyline fill="none" stroke="#d95f02" stroke-width="2.5" points="520.00,70.00 576.67,70.00 633.33,70.00 690.00,70.00 746.67,70.00 803.33,70.00 860.00,70.00"/>
<text x="90" y="334" font-size="15" font-weight="bold" fill="#222222">Mean Final Entities</text>
<line x1="90" y1="540.00" x2="430" y2="540.00" stroke="#d9d9d9" stroke-width="1"/>
<text x="80" y="544.00" text-anchor="end" font-size="11" fill="#222222">0.00</text>
<line x1="90" y1="492.50" x2="430" y2="492.50" stroke="#d9d9d9" stroke-width="1"/>
<text x="80" y="496.50" text-anchor="end" font-size="11" fill="#222222">25.29</text>
<line x1="90" y1="445.00" x2="430" y2="445.00" stroke="#d9d9d9" stroke-width="1"/>
<text x="80" y="449.00" text-anchor="end" font-size="11" fill="#222222">50.58</text>
<line x1="90" y1="397.50" x2="430" y2="397.50" stroke="#d9d9d9" stroke-width="1"/>
<text x="80" y="401.50" text-anchor="end" font-size="11" fill="#222222">75.88</text>
<line x1="90" y1="350.00" x2="430" y2="350.00" stroke="#d9d9d9" stroke-width="1"/>
<text x="80" y="354.00" text-anchor="end" font-size="11" fill="#222222">101.17</text>
<line x1="90.00" y1="350" x2="90.00" y2="540" stroke="#d9d9d9" stroke-width="1"/>
<text x="90.00" y="558" text-anchor="middle" font-size="11" fill="#222222">20</text>
<line x1="146.67" y1="350" x2="146.67" y2="540" stroke="#d9d9d9" stroke-width="1"/>
<text x="146.67" y="558" text-anchor="middle" font-size="11" fill="#222222">24</text>
<line x1="203.33" y1="350" x2="203.33" y2="540" stroke="#d9d9d9" stroke-width="1"/>
<text x="203.33" y="558" text-anchor="middle" font-size="11" fill="#222222">28</text>
<line x1="260.00" y1="350" x2="260.00" y2="540" stroke="#d9d9d9" stroke-width="1"/>
<text x="260.00" y="558" text-anchor="middle" font-size="11" fill="#222222">32</text>
<line x1="316.67" y1="350" x2="316.67" y2="540" stroke="#d9d9d9" stroke-width="1"/>
<text x="316.67" y="558" text-anchor="middle" font-size="11" fill="#222222">36</text>
<line x1="373.33" y1="350" x2="373.33" y2="540" stroke="#d9d9d9" stroke-width="1"/>
<text x="373.33" y="558" text-anchor="middle" font-size="11" fill="#222222">40</text>
<line x1="430.00" y1="350" x2="430.00" y2="540" stroke="#d9d9d9" stroke-width="1"/>
<text x="430.00" y="558" text-anchor="middle" font-size="11" fill="#222222">44</text>
<line x1="90" y1="540" x2="430" y2="540" stroke="#333333" stroke-width="1.3"/>
<line x1="90" y1="350" x2="90" y2="540" stroke="#333333" stroke-width="1.3"/>
<text x="260.00" y="580" text-anchor="middle" font-size="12" fill="#222222">Total Zr concentration (mM)</text>
<text x="38" y="445.00" transform="rotate(-90 38 445.00)" text-anchor="middle" font-size="12" fill="#222222">Final entities</text>
<circle cx="90.00" cy="351.96" r="4.5" fill="#d95f02"/>
<circle cx="146.67" cy="351.88" r="4.5" fill="#d95f02"/>
<circle cx="203.33" cy="352.11" r="4.5" fill="#d95f02"/>
<circle cx="260.00" cy="352.03" r="4.5" fill="#d95f02"/>
<circle cx="316.67" cy="352.19" r="4.5" fill="#d95f02"/>
<circle cx="373.33" cy="352.11" r="4.5" fill="#d95f02"/>
<circle cx="430.00" cy="351.96" r="4.5" fill="#d95f02"/>
<polyline fill="none" stroke="#d95f02" stroke-width="2.5" points="90.00,351.96 146.67,351.88 203.33,352.11 260.00,352.03 316.67,352.19 373.33,352.11 430.00,351.96"/>
<text x="520" y="334" font-size="15" font-weight="bold" fill="#222222">Mean Prebound Fraction</text>
<line x1="520" y1="540.00" x2="860" y2="540.00" stroke="#d9d9d9" stroke-width="1"/>
<text x="510" y="544.00" text-anchor="end" font-size="11" fill="#222222">0.00</text>
<line x1="520" y1="492.50" x2="860" y2="492.50" stroke="#d9d9d9" stroke-width="1"/>
<text x="510" y="496.50" text-anchor="end" font-size="11" fill="#222222">0.02</text>
<line x1="520" y1="445.00" x2="860" y2="445.00" stroke="#d9d9d9" stroke-width="1"/>
<text x="510" y="449.00" text-anchor="end" font-size="11" fill="#222222">0.05</text>
<line x1="520" y1="397.50" x2="860" y2="397.50" stroke="#d9d9d9" stroke-width="1"/>
<text x="510" y="401.50" text-anchor="end" font-size="11" fill="#222222">0.07</text>
<line x1="520" y1="350.00" x2="860" y2="350.00" stroke="#d9d9d9" stroke-width="1"/>
<text x="510" y="354.00" text-anchor="end" font-size="11" fill="#222222">0.09</text>
<line x1="520.00" y1="350" x2="520.00" y2="540" stroke="#d9d9d9" stroke-width="1"/>
<text x="520.00" y="558" text-anchor="middle" font-size="11" fill="#222222">20</text>
<line x1="576.67" y1="350" x2="576.67" y2="540" stroke="#d9d9d9" stroke-width="1"/>
<text x="576.67" y="558" text-anchor="middle" font-size="11" fill="#222222">24</text>
<line x1="633.33" y1="350" x2="633.33" y2="540" stroke="#d9d9d9" stroke-width="1"/>
<text x="633.33" y="558" text-anchor="middle" font-size="11" fill="#222222">28</text>
<line x1="690.00" y1="350" x2="690.00" y2="540" stroke="#d9d9d9" stroke-width="1"/>
<text x="690.00" y="558" text-anchor="middle" font-size="11" fill="#222222">32</text>
<line x1="746.67" y1="350" x2="746.67" y2="540" stroke="#d9d9d9" stroke-width="1"/>
<text x="746.67" y="558" text-anchor="middle" font-size="11" fill="#222222">36</text>
<line x1="803.33" y1="350" x2="803.33" y2="540" stroke="#d9d9d9" stroke-width="1"/>
<text x="803.33" y="558" text-anchor="middle" font-size="11" fill="#222222">40</text>
<line x1="860.00" y1="350" x2="860.00" y2="540" stroke="#d9d9d9" stroke-width="1"/>
<text x="860.00" y="558" text-anchor="middle" font-size="11" fill="#222222">44</text>
<line x1="520" y1="540" x2="860" y2="540" stroke="#333333" stroke-width="1.3"/>
<line x1="520" y1="350" x2="520" y2="540" stroke="#333333" stroke-width="1.3"/>
<text x="690.00" y="580" text-anchor="middle" font-size="12" fill="#222222">Total Zr concentration (mM)</text>
<text x="468" y="445.00" transform="rotate(-90 468 445.00)" text-anchor="middle" font-size="12" fill="#222222">Prebound fraction</text>
<circle cx="520.00" cy="469.82" r="4.5" fill="#2a9d8f"/>
<circle cx="576.67" cy="456.35" r="4.5" fill="#2a9d8f"/>
<circle cx="633.33" cy="443.04" r="4.5" fill="#2a9d8f"/>
<circle cx="690.00" cy="429.92" r="4.5" fill="#2a9d8f"/>
<circle cx="746.67" cy="416.96" r="4.5" fill="#2a9d8f"/>
<circle cx="803.33" cy="404.17" r="4.5" fill="#2a9d8f"/>
<circle cx="860.00" cy="391.55" r="4.5" fill="#2a9d8f"/>
<polyline fill="none" stroke="#2a9d8f" stroke-width="2.5" points="520.00,469.82 576.67,456.35 633.33,443.04 690.00,429.92 746.67,416.96 803.33,404.17 860.00,391.55"/>
</svg>