<svg xmlns="http://www.w3.org/2000/svg" width="920" height="620" viewBox="0 0 920 620">
<rect width="100%" height="100%" fill="white"/>
<text x="90" y="32" font-size="22" font-weight="bold" fill="#222222">Distorted/Prebound Time To 100 Entities</text>
<text x="90" y="52" font-size="12" fill="#222222">Repeated runs per Zr, stopping when 100 entities is reached or the large step cap is hit.</text>
<text x="90" y="54" font-size="15" font-weight="bold" fill="#222222">Mean Time To 100</text>
<line x1="90" y1="260.00" x2="430" y2="260.00" stroke="#d9d9d9" stroke-width="1"/>
<text x="80" y="264.00" text-anchor="end" font-size="11" fill="#222222">0.00</text>
<line x1="90" y1="212.50" x2="430" y2="212.50" stroke="#d9d9d9" stroke-width="1"/>
<text x="80" y="216.50" text-anchor="end" font-size="11" fill="#222222">5.38</text>
<line x1="90" y1="165.00" x2="430" y2="165.00" stroke="#d9d9d9" stroke-width="1"/>
<text x="80" y="169.00" text-anchor="end" font-size="11" fill="#222222">10.76</text>
<line x1="90" y1="117.50" x2="430" y2="117.50" stroke="#d9d9d9" stroke-width="1"/>
<text x="80" y="121.50" text-anchor="end" font-size="11" fill="#222222">16.14</text>
<line x1="90" y1="70.00" x2="430" y2="70.00" stroke="#d9d9d9" stroke-width="1"/>
<text x="80" y="74.00" text-anchor="end" font-size="11" fill="#222222">21.52</text>
<line x1="90.00" y1="70" x2="90.00" y2="260" stroke="#d9d9d9" stroke-width="1"/>
<text x="90.00" y="278" text-anchor="middle" font-size="11" fill="#222222">24</text>
<line x1="143.68" y1="70" x2="143.68" y2="260" stroke="#d9d9d9" stroke-width="1"/>
<text x="143.68" y="278" text-anchor="middle" font-size="11" fill="#222222">36</text>
<line x1="179.47" y1="70" x2="179.47" y2="260" stroke="#d9d9d9" stroke-width="1"/>
<text x="179.47" y="278" text-anchor="middle" font-size="11" fill="#222222">44</text>
<line x1="251.05" y1="70" x2="251.05" y2="260" stroke="#d9d9d9" stroke-width="1"/>
<text x="251.05" y="278" text-anchor="middle" font-size="11" fill="#222222">60</text>
<line x1="340.53" y1="70" x2="340.53" y2="260" stroke="#d9d9d9" stroke-width="1"/>
<text x="340.53" y="278" text-anchor="middle" font-size="11" fill="#222222">80</text>
<line x1="430.00" y1="70" x2="430.00" y2="260" stroke="#d9d9d9" stroke-width="1"/>
<text x="430.00" y="278" text-anchor="middle" font-size="11" fill="#222222">100</text>
<line x1="90" y1="260" x2="430" y2="260" stroke="#333333" stroke-width="1.3"/>
<line x1="90" y1="70" x2="90" y2="260" stroke="#333333" stroke-width="1.3"/>
<text x="260.00" y="300" text-anchor="middle" font-size="12" fill="#222222">Total Zr concentration (mM)</text>
<text x="38" y="165.00" transform="rotate(-90 38 165.00)" text-anchor="middle" font-size="12" fill="#222222">Time to 100 (s)</text>
<circle cx="90.00" cy="246.90" r="4.5" fill="#d95f02"/>
<circle cx="143.68" cy="251.32" r="4.5" fill="#d95f02"/>
<circle cx="179.47" cy="252.99" r="4.5" fill="#d95f02"/>
<circle cx="251.05" cy="256.08" r="4.5" fill="#d95f02"/>
<circle cx="340.53" cy="257.14" r="4.5" fill="#d95f02"/>
<circle cx="430.00" cy="257.42" r="4.5" fill="#d95f02"/>
<polyline fill="none" stroke="#d95f02" stroke-width="2.5" points="90.00,246.90 143.68,251.32 179.47,252.99 251.05,256.08 340.53,257.14 430.00,257.42"/>
<text x="520" y="54" font-size="15" font-weight="bold" fill="#222222">Reach Fraction To 100</text>
<line x1="520" y1="260.00" x2="860" y2="260.00" stroke="#d9d9d9" stroke-width="1"/>
<text x="510" y="264.00" text-anchor="end" font-size="11" fill="#222222">0.00</text>
<line x1="520" y1="212.50" x2="860" y2="212.50" stroke="#d9d9d9" stroke-width="1"/>
<text x="510" y="216.50" text-anchor="end" font-size="11" fill="#222222">0.25</text>
<line x1="520" y1="165.00" x2="860" y2="165.00" stroke="#d9d9d9" stroke-width="1"/>
<text x="510" y="169.00" text-anchor="end" font-size="11" fill="#222222">0.50</text>
<line x1="520" y1="117.50" x2="860" y2="117.50" stroke="#d9d9d9" stroke-width="1"/>
<text x="510" y="121.50" text-anchor="end" font-size="11" fill="#222222">0.75</text>
<line x1="520" y1="70.00" x2="860" y2="70.00" stroke="#d9d9d9" stroke-width="1"/>
<text x="510" y="74.00" text-anchor="end" font-size="11" fill="#222222">1.00</text>
<line x1="520.00" y1="70" x2="520.00" y2="260" stroke="#d9d9d9" stroke-width="1"/>
<text x="520.00" y="278" text-anchor="middle" font-size="11" fill="#222222">24</text>
<line x1="573.68" y1="70" x2="573.68" y2="260" stroke="#d9d9d9" stroke-width="1"/>
<text x="573.68" y="278" text-anchor="middle" font-size="11" fill="#222222">36</text>
<line x1="609.47" y1="70" x2="609.47" y2="260" stroke="#d9d9d9" stroke-width="1"/>
<text x="609.47" y="278" text-anchor="middle" font-size="11" fill="#222222">44</text>
<line x1="681.05" y1="70" x2="681.05" y2="260" stroke="#d9d9d9" stroke-width="1"/>
<text x="681.05" y="278" text-anchor="middle" font-size="11" fill="#222222">60</text>
<line x1="770.53" y1="70" x2="770.53" y2="260" stroke="#d9d9d9" stroke-width="1"/>
<text x="770.53" y="278" text-anchor="middle" font-size="11" fill="#222222">80</text>
<line x1="860.00" y1="70" x2="860.00" y2="260" stroke="#d9d9d9" stroke-width="1"/>
<text x="860.00" y="278" text-anchor="middle" font-size="11" fill="#222222">100</text>
<line x1="520" y1="260" x2="860" y2="260" stroke="#333333" stroke-width="1.3"/>
<line x1="520" y1="70" x2="520" y2="260" stroke="#333333" stroke-width="1.3"/>
<text x="690.00" y="300" text-anchor="middle" font-size="12" fill="#222222">Total Zr concentration (mM)</text>
<text x="468" y="165.00" transform="rotate(-90 468 165.00)" text-anchor="middle" font-size="12" fill="#222222">Reach fraction</text>
<circle cx="520.00" cy="70.00" r="4.5" fill="#d95f02"/>
<circle cx="573.68" cy="70.00" r="4.5" fill="#d95f02"/>
<circle cx="609.47" cy="70.00" r="4.5" fill="#d95f02"/>
<circle cx="681.05" cy="70.00" r="4.5" fill="#d95f02"/>
<circle cx="770.53" cy="70.00" r="4.5" fill="#d95f02"/>
<circle cx="860.00" cy="70.00" r="4.5" fill="#d95f02"/>
<polyline fill="none" stroke="#d95f02" stroke-width="2.5" points="520.00,70.00 573.68,70.00 609.47,70.00 681.05,70.00 770.53,70.00 860.00,70.00"/>
<text x="90" y="334" font-size="15" font-weight="bold" fill="#222222">Mean Final Entities</text>
<line x1="90" y1="540.00" x2="430" y2="540.00" stroke="#d9d9d9" stroke-width="1"/>
<text x="80" y="544.00" text-anchor="end" font-size="11" fill="#222222">0.00</text>
<line x1="90" y1="492.50" x2="430" y2="492.50" stroke="#d9d9d9" stroke-width="1"/>
<text x="80" y="496.50" text-anchor="end" font-size="11" fill="#222222">25.28</text>
<line x1="90" y1="445.00" x2="430" y2="445.00" stroke="#d9d9d9" stroke-width="1"/>
<text x="80" y="449.00" text-anchor="end" font-size="11" fill="#222222">50.56</text>
<line x1="90" y1="397.50" x2="430" y2="397.50" stroke="#d9d9d9" stroke-width="1"/>
<text x="80" y="401.50" text-anchor="end" font-size="11" fill="#222222">75.84</text>
<line x1="90" y1="350.00" x2="430" y2="350.00" stroke="#d9d9d9" stroke-width="1"/>
<text x="80" y="354.00" text-anchor="end" font-size="11" fill="#222222">101.12</text>
<line x1="90.00" y1="350" x2="90.00" y2="540" stroke="#d9d9d9" stroke-width="1"/>
<text x="90.00" y="558" text-anchor="middle" font-size="11" fill="#222222">24</text>
<line x1="143.68" y1="350" x2="143.68" y2="540" stroke="#d9d9d9" stroke-width="1"/>
<text x="143.68" y="558" text-anchor="middle" font-size="11" fill="#222222">36</text>
<line x1="179.47" y1="350" x2="179.47" y2="540" stroke="#d9d9d9" stroke-width="1"/>
<text x="179.47" y="558" text-anchor="middle" font-size="11" fill="#222222">44</text>
<line x1="251.05" y1="350" x2="251.05" y2="540" stroke="#d9d9d9" stroke-width="1"/>
<text x="251.05" y="558" text-anchor="middle" font-size="11" fill="#222222">60</text>
<line x1="340.53" y1="350" x2="340.53" y2="540" stroke="#d9d9d9" stroke-width="1"/>
<text x="340.53" y="558" text-anchor="middle" font-size="11" fill="#222222">80</text>
<line x1="430.00" y1="350" x2="430.00" y2="540" stroke="#d9d9d9" stroke-width="1"/>
<text x="430.00" y="558" text-anchor="middle" font-size="11" fill="#222222">100</text>
<line x1="90" y1="540" x2="430" y2="540" stroke="#333333" stroke-width="1.3"/>
<line x1="90" y1="350" x2="90" y2="540" stroke="#333333" stroke-width="1.3"/>
<text x="260.00" y="580" text-anchor="middle" font-size="12" fill="#222222">Total Zr concentration (mM)</text>
<text x="38" y="445.00" transform="rotate(-90 38 445.00)" text-anchor="middle" font-size="12" fill="#222222">Final entities</text>
<circle cx="90.00" cy="352.11" r="4.5" fill="#d95f02"/>
<circle cx="143.68" cy="351.88" r="4.5" fill="#d95f02"/>
<circle cx="179.47" cy="352.11" r="4.5" fill="#d95f02"/>
<circle cx="251.05" cy="352.11" r="4.5" fill="#d95f02"/>
<circle cx="340.53" cy="351.88" r="4.5" fill="#d95f02"/>
<circle cx="430.00" cy="352.11" r="4.5" fill="#d95f02"/>
<polyline fill="none" stroke="#d95f02" stroke-width="2.5" points="90.00,352.11 143.68,351.88 179.47,352.11 251.05,352.11 340.53,351.88 430.00,352.11"/>
<text x="520" y="334" font-size="15" font-weight="bold" fill="#222222">Mean Prebound Fraction</text>
<line x1="520" y1="540.00" x2="860" y2="540.00" stroke="#d9d9d9" stroke-width="1"/>
<text x="510" y="544.00" text-anchor="end" font-size="11" fill="#222222">0.00</text>
<line x1="520" y1="492.50" x2="860" y2="492.50" stroke="#d9d9d9" stroke-width="1"/>
<text x="510" y="496.50" text-anchor="end" font-size="11" fill="#222222">0.04</text>
<line x1="520" y1="445.00" x2="860" y2="445.00" stroke="#d9d9d9" stroke-width="1"/>
<text x="510" y="449.00" text-anchor="end" font-size="11" fill="#222222">0.09</text>
<line x1="520" y1="397.50" x2="860" y2="397.50" stroke="#d9d9d9" stroke-width="1"/>
<text x="510" y="401.50" text-anchor="end" font-size="11" fill="#222222">0.13</text>
<line x1="520" y1="350.00" x2="860" y2="350.00" stroke="#d9d9d9" stroke-width="1"/>
<text x="510" y="354.00" text-anchor="end" font-size="11" fill="#222222">0.17</text>
<line x1="520.00" y1="350" x2="520.00" y2="540" stroke="#d9d9d9" stroke-width="1"/>
<text x="520.00" y="558" text-anchor="middle" font-size="11" fill="#222222">24</text>
<line x1="573.68" y1="350" x2="573.68" y2="540" stroke="#d9d9d9" stroke-width="1"/>
<text x="573.68" y="558" text-anchor="middle" font-size="11" fill="#222222">36</text>
<line x1="609.47" y1="350" x2="609.47" y2="540" stroke="#d9d9d9" stroke-width="1"/>
<text x="609.47" y="558" text-anchor="middle" font-size="11" fill="#222222">44</text>
<line x1="681.05" y1="350" x2="681.05" y2="540" stroke="#d9d9d9" stroke-width="1"/>
<text x="681.05" y="558" text-anchor="middle" font-size="11" fill="#222222">60</text>
<line x1="770.53" y1="350" x2="770.53" y2="540" stroke="#d9d9d9" stroke-width="1"/>
<text x="770.53" y="558" text-anchor="middle" font-size="11" fill="#222222">80</text>
<line x1="860.00" y1="350" x2="860.00" y2="540" stroke="#d9d9d9" stroke-width="1"/>
<text x="860.00" y="558" text-anchor="middle" font-size="11" fill="#222222">100</text>
<line x1="520" y1="540" x2="860" y2="540" stroke="#333333" stroke-width="1.3"/>
<line x1="520" y1="350" x2="520" y2="540" stroke="#333333" stroke-width="1.3"/>
<text x="690.00" y="580" text-anchor="middle" font-size="12" fill="#222222">Total Zr concentration (mM)</text>
<text x="468" y="445.00" transform="rotate(-90 468 445.00)" text-anchor="middle" font-size="12" fill="#222222">Prebound fraction</text>
<circle cx="520.00" cy="494.59" r="4.5" fill="#2a9d8f"/>
<circle cx="573.68" cy="473.24" r="4.5" fill="#2a9d8f"/>
<circle cx="609.47" cy="459.47" r="4.5" fill="#2a9d8f"/>
<circle cx="681.05" cy="432.98" r="4.5" fill="#2a9d8f"/>
<circle cx="770.53" cy="401.71" r="4.5" fill="#2a9d8f"/>
<circle cx="860.00" cy="372.31" r="4.5" fill="#2a9d8f"/>
<polyline fill="none" stroke="#2a9d8f" stroke-width="2.5" points="520.00,494.59 573.68,473.24 609.47,459.47 681.05,432.98 770.53,401.71 860.00,372.31"/>
</svg>