<svg xmlns="http://www.w3.org/2000/svg" width="1000" height="620" viewBox="0 0 1000 620">
<rect width="100%" height="100%" fill="white"/>
<text x="90" y="32" font-size="24" font-weight="bold" fill="#222">MOL One-Plane Window: Time To 100 vs Zr (1-44 mM)</text>
<text x="90" y="54" font-size="13" fill="#444">BTB = 21.1728548778 mM, FA = 7221.027611 mM, distorted/prebound model, 24 repeats per Zr</text>
<line x1="90" y1="540.00" x2="960" y2="540.00" stroke="#e0e0e0" stroke-width="1"/>
<text x="80" y="544.00" text-anchor="end" font-size="11" fill="#444">0.0</text>
<line x1="90" y1="446.00" x2="960" y2="446.00" stroke="#e0e0e0" stroke-width="1"/>
<text x="80" y="450.00" text-anchor="end" font-size="11" fill="#444">12.2</text>
<line x1="90" y1="352.00" x2="960" y2="352.00" stroke="#e0e0e0" stroke-width="1"/>
<text x="80" y="356.00" text-anchor="end" font-size="11" fill="#444">24.3</text>
<line x1="90" y1="258.00" x2="960" y2="258.00" stroke="#e0e0e0" stroke-width="1"/>
<text x="80" y="262.00" text-anchor="end" font-size="11" fill="#444">36.5</text>
<line x1="90" y1="164.00" x2="960" y2="164.00" stroke="#e0e0e0" stroke-width="1"/>
<text x="80" y="168.00" text-anchor="end" font-size="11" fill="#444">48.7</text>
<line x1="90" y1="70.00" x2="960" y2="70.00" stroke="#e0e0e0" stroke-width="1"/>
<text x="80" y="74.00" text-anchor="end" font-size="11" fill="#444">60.8</text>
<line x1="90.00" y1="70" x2="90.00" y2="540" stroke="#efefef" stroke-width="1"/>
<text x="90.00" y="562" text-anchor="middle" font-size="10" fill="#444">1</text>
<line x1="110.23" y1="70" x2="110.23" y2="540" stroke="#efefef" stroke-width="1"/>
<text x="110.23" y="562" text-anchor="middle" font-size="10" fill="#444">2</text>
<line x1="130.47" y1="70" x2="130.47" y2="540" stroke="#efefef" stroke-width="1"/>
<text x="130.47" y="562" text-anchor="middle" font-size="10" fill="#444">3</text>
<line x1="150.70" y1="70" x2="150.70" y2="540" stroke="#efefef" stroke-width="1"/>
<text x="150.70" y="562" text-anchor="middle" font-size="10" fill="#444">4</text>
<line x1="170.93" y1="70" x2="170.93" y2="540" stroke="#efefef" stroke-width="1"/>
<text x="170.93" y="562" text-anchor="middle" font-size="10" fill="#444">5</text>
<line x1="191.16" y1="70" x2="191.16" y2="540" stroke="#efefef" stroke-width="1"/>
<text x="191.16" y="562" text-anchor="middle" font-size="10" fill="#444">6</text>
<line x1="251.86" y1="70" x2="251.86" y2="540" stroke="#efefef" stroke-width="1"/>
<text x="251.86" y="562" text-anchor="middle" font-size="10" fill="#444">9</text>
<line x1="312.56" y1="70" x2="312.56" y2="540" stroke="#efefef" stroke-width="1"/>
<text x="312.56" y="562" text-anchor="middle" font-size="10" fill="#444">12</text>
<line x1="393.49" y1="70" x2="393.49" y2="540" stroke="#efefef" stroke-width="1"/>
<text x="393.49" y="562" text-anchor="middle" font-size="10" fill="#444">16</text>
<line x1="474.42" y1="70" x2="474.42" y2="540" stroke="#efefef" stroke-width="1"/>
<text x="474.42" y="562" text-anchor="middle" font-size="10" fill="#444">20</text>
<line x1="555.35" y1="70" x2="555.35" y2="540" stroke="#efefef" stroke-width="1"/>
<text x="555.35" y="562" text-anchor="middle" font-size="10" fill="#444">24</text>
<line x1="636.28" y1="70" x2="636.28" y2="540" stroke="#efefef" stroke-width="1"/>
<text x="636.28" y="562" text-anchor="middle" font-size="10" fill="#444">28</text>
<line x1="717.21" y1="70" x2="717.21" y2="540" stroke="#efefef" stroke-width="1"/>
<text x="717.21" y="562" text-anchor="middle" font-size="10" fill="#444">32</text>
<line x1="798.14" y1="70" x2="798.14" y2="540" stroke="#efefef" stroke-width="1"/>
<text x="798.14" y="562" text-anchor="middle" font-size="10" fill="#444">36</text>
<line x1="879.07" y1="70" x2="879.07" y2="540" stroke="#efefef" stroke-width="1"/>
<text x="879.07" y="562" text-anchor="middle" font-size="10" fill="#444">40</text>
<line x1="960.00" y1="70" x2="960.00" y2="540" stroke="#efefef" stroke-width="1"/>
<text x="960.00" y="562" text-anchor="middle" font-size="10" fill="#444">44</text>
<line x1="90" y1="540" x2="960" y2="540" stroke="#333" stroke-width="1.4"/>
<line x1="90" y1="70" x2="90" y2="540" stroke="#333" stroke-width="1.4"/>
<text x="525.00" y="592" text-anchor="middle" font-size="13" fill="#222">Total Zr concentration (mM)</text>
<text x="28" y="305.00" transform="rotate(-90 28 305.00)" text-anchor="middle" font-size="13" fill="#222">Time to 100 (s)</text>
<polyline fill="none" stroke="#1f77b4" stroke-width="2.4" points="90.00,257.78 110.23,192.15 130.47,205.51 150.70,308.52 170.93,235.43 191.16,312.85 251.86,250.31 312.56,248.68 393.49,266.62 474.42,255.70 555.35,270.33 636.28,210.40 717.21,231.48 798.14,206.77 879.07,153.68 960.00,131.30"/>
<polyline fill="none" stroke="#d95f02" stroke-width="2.8" points="90.00,347.00 110.23,253.42 130.47,245.41 150.70,357.02 170.93,268.13 191.16,342.12 251.86,322.49 312.56,338.77 393.49,328.02 474.42,325.75 555.35,355.29 636.28,267.78 717.21,315.80 798.14,265.40 879.07,200.64 960.00,153.98"/>
<circle cx="90.00" cy="257.78" r="3.8" fill="#1f77b4"/>
<circle cx="110.23" cy="192.15" r="3.8" fill="#1f77b4"/>
<circle cx="130.47" cy="205.51" r="3.8" fill="#1f77b4"/>
<circle cx="150.70" cy="308.52" r="3.8" fill="#1f77b4"/>
<circle cx="170.93" cy="235.43" r="3.8" fill="#1f77b4"/>
<circle cx="191.16" cy="312.85" r="3.8" fill="#1f77b4"/>
<circle cx="251.86" cy="250.31" r="3.8" fill="#1f77b4"/>
<circle cx="312.56" cy="248.68" r="3.8" fill="#1f77b4"/>
<circle cx="393.49" cy="266.62" r="3.8" fill="#1f77b4"/>
<circle cx="474.42" cy="255.70" r="3.8" fill="#1f77b4"/>
<circle cx="555.35" cy="270.33" r="3.8" fill="#1f77b4"/>
<circle cx="636.28" cy="210.40" r="3.8" fill="#1f77b4"/>
<circle cx="717.21" cy="231.48" r="3.8" fill="#1f77b4"/>
<circle cx="798.14" cy="206.77" r="3.8" fill="#1f77b4"/>
<circle cx="879.07" cy="153.68" r="3.8" fill="#1f77b4"/>
<circle cx="960.00" cy="131.30" r="3.8" fill="#1f77b4"/>
<circle cx="90.00" cy="347.00" r="4.3" fill="#d95f02"/>
<circle cx="110.23" cy="253.42" r="4.3" fill="#d95f02"/>
<circle cx="130.47" cy="245.41" r="4.3" fill="#d95f02"/>
<circle cx="150.70" cy="357.02" r="4.3" fill="#d95f02"/>
<circle cx="170.93" cy="268.13" r="4.3" fill="#d95f02"/>
<circle cx="191.16" cy="342.12" r="4.3" fill="#d95f02"/>
<circle cx="251.86" cy="322.49" r="4.3" fill="#d95f02"/>
<circle cx="312.56" cy="338.77" r="4.3" fill="#d95f02"/>
<circle cx="393.49" cy="328.02" r="4.3" fill="#d95f02"/>
<circle cx="474.42" cy="325.75" r="4.3" fill="#d95f02"/>
<circle cx="555.35" cy="355.29" r="4.3" fill="#d95f02"/>
<circle cx="636.28" cy="267.78" r="4.3" fill="#d95f02"/>
<circle cx="717.21" cy="315.80" r="4.3" fill="#d95f02"/>
<circle cx="798.14" cy="265.40" r="4.3" fill="#d95f02"/>
<circle cx="879.07" cy="200.64" r="4.3" fill="#d95f02"/>
<circle cx="960.00" cy="153.98" r="4.3" fill="#d95f02"/>
<rect x="750" y="86" width="170" height="54" rx="8" fill="#fafafa" stroke="#d0d0d0"/>
<line x1="764" y1="104" x2="794" y2="104" stroke="#1f77b4" stroke-width="2.4"/>
<circle cx="779" cy="104" r="4" fill="#1f77b4"/>
<text x="804" y="108" font-size="12" fill="#222">Mean</text>
<line x1="764" y1="124" x2="794" y2="124" stroke="#d95f02" stroke-width="2.8"/>
<circle cx="779" cy="124" r="4.5" fill="#d95f02"/>
<text x="804" y="128" font-size="12" fill="#222">Median</text>
</svg>