<svg xmlns="http://www.w3.org/2000/svg" width="980" height="620" viewBox="0 0 980 620">
<rect width="100%" height="100%" fill="white"/>
<text x="90" y="32" font-size="24" font-weight="bold" fill="#222">MOL One-Plane Window Fast Zone (1-24 mM)</text>
<text x="90" y="54" font-size="13" fill="#444">Median time to 100 plus 5-point smoothing; BTB = 21.17 mM, FA = 7221.03 mM, 24 repeats per Zr</text>
<line x1="90" y1="540.00" x2="940" y2="540.00" stroke="#e0e0e0" stroke-width="1"/>
<text x="80" y="544.00" text-anchor="end" font-size="11" fill="#444">0.0</text>
<line x1="90" y1="446.00" x2="940" y2="446.00" stroke="#e0e0e0" stroke-width="1"/>
<text x="80" y="450.00" text-anchor="end" font-size="11" fill="#444">9.2</text>
<line x1="90" y1="352.00" x2="940" y2="352.00" stroke="#e0e0e0" stroke-width="1"/>
<text x="80" y="356.00" text-anchor="end" font-size="11" fill="#444">18.3</text>
<line x1="90" y1="258.00" x2="940" y2="258.00" stroke="#e0e0e0" stroke-width="1"/>
<text x="80" y="262.00" text-anchor="end" font-size="11" fill="#444">27.5</text>
<line x1="90" y1="164.00" x2="940" y2="164.00" stroke="#e0e0e0" stroke-width="1"/>
<text x="80" y="168.00" text-anchor="end" font-size="11" fill="#444">36.6</text>
<line x1="90" y1="70.00" x2="940" y2="70.00" stroke="#e0e0e0" stroke-width="1"/>
<text x="80" y="74.00" text-anchor="end" font-size="11" fill="#444">45.8</text>
<line x1="90.00" y1="70" x2="90.00" y2="540" stroke="#f0f0f0" stroke-width="1"/>
<text x="90.00" y="562" text-anchor="middle" font-size="10" fill="#444">1</text>
<line x1="126.96" y1="70" x2="126.96" y2="540" stroke="#f0f0f0" stroke-width="1"/>
<text x="126.96" y="562" text-anchor="middle" font-size="10" fill="#444">2</text>
<line x1="163.91" y1="70" x2="163.91" y2="540" stroke="#f0f0f0" stroke-width="1"/>
<text x="163.91" y="562" text-anchor="middle" font-size="10" fill="#444">3</text>
<line x1="200.87" y1="70" x2="200.87" y2="540" stroke="#f0f0f0" stroke-width="1"/>
<text x="200.87" y="562" text-anchor="middle" font-size="10" fill="#444">4</text>
<line x1="237.83" y1="70" x2="237.83" y2="540" stroke="#f0f0f0" stroke-width="1"/>
<text x="237.83" y="562" text-anchor="middle" font-size="10" fill="#444">5</text>
<line x1="274.78" y1="70" x2="274.78" y2="540" stroke="#f0f0f0" stroke-width="1"/>
<text x="274.78" y="562" text-anchor="middle" font-size="10" fill="#444">6</text>
<line x1="311.74" y1="70" x2="311.74" y2="540" stroke="#f0f0f0" stroke-width="1"/>
<text x="311.74" y="562" text-anchor="middle" font-size="10" fill="#444">7</text>
<line x1="348.70" y1="70" x2="348.70" y2="540" stroke="#f0f0f0" stroke-width="1"/>
<text x="348.70" y="562" text-anchor="middle" font-size="10" fill="#444">8</text>
<line x1="385.65" y1="70" x2="385.65" y2="540" stroke="#f0f0f0" stroke-width="1"/>
<text x="385.65" y="562" text-anchor="middle" font-size="10" fill="#444">9</text>
<line x1="422.61" y1="70" x2="422.61" y2="540" stroke="#f0f0f0" stroke-width="1"/>
<text x="422.61" y="562" text-anchor="middle" font-size="10" fill="#444">10</text>
<line x1="459.57" y1="70" x2="459.57" y2="540" stroke="#f0f0f0" stroke-width="1"/>
<text x="459.57" y="562" text-anchor="middle" font-size="10" fill="#444">11</text>
<line x1="496.52" y1="70" x2="496.52" y2="540" stroke="#f0f0f0" stroke-width="1"/>
<text x="496.52" y="562" text-anchor="middle" font-size="10" fill="#444">12</text>
<line x1="533.48" y1="70" x2="533.48" y2="540" stroke="#f0f0f0" stroke-width="1"/>
<text x="533.48" y="562" text-anchor="middle" font-size="10" fill="#444">13</text>
<line x1="570.43" y1="70" x2="570.43" y2="540" stroke="#f0f0f0" stroke-width="1"/>
<text x="570.43" y="562" text-anchor="middle" font-size="10" fill="#444">14</text>
<line x1="607.39" y1="70" x2="607.39" y2="540" stroke="#f0f0f0" stroke-width="1"/>
<text x="607.39" y="562" text-anchor="middle" font-size="10" fill="#444">15</text>
<line x1="644.35" y1="70" x2="644.35" y2="540" stroke="#f0f0f0" stroke-width="1"/>
<text x="644.35" y="562" text-anchor="middle" font-size="10" fill="#444">16</text>
<line x1="681.30" y1="70" x2="681.30" y2="540" stroke="#f0f0f0" stroke-width="1"/>
<text x="681.30" y="562" text-anchor="middle" font-size="10" fill="#444">17</text>
<line x1="718.26" y1="70" x2="718.26" y2="540" stroke="#f0f0f0" stroke-width="1"/>
<text x="718.26" y="562" text-anchor="middle" font-size="10" fill="#444">18</text>
<line x1="755.22" y1="70" x2="755.22" y2="540" stroke="#f0f0f0" stroke-width="1"/>
<text x="755.22" y="562" text-anchor="middle" font-size="10" fill="#444">19</text>
<line x1="792.17" y1="70" x2="792.17" y2="540" stroke="#f0f0f0" stroke-width="1"/>
<text x="792.17" y="562" text-anchor="middle" font-size="10" fill="#444">20</text>
<line x1="829.13" y1="70" x2="829.13" y2="540" stroke="#f0f0f0" stroke-width="1"/>
<text x="829.13" y="562" text-anchor="middle" font-size="10" fill="#444">21</text>
<line x1="866.09" y1="70" x2="866.09" y2="540" stroke="#f0f0f0" stroke-width="1"/>
<text x="866.09" y="562" text-anchor="middle" font-size="10" fill="#444">22</text>
<line x1="903.04" y1="70" x2="903.04" y2="540" stroke="#f0f0f0" stroke-width="1"/>
<text x="903.04" y="562" text-anchor="middle" font-size="10" fill="#444">23</text>
<line x1="940.00" y1="70" x2="940.00" y2="540" stroke="#f0f0f0" stroke-width="1"/>
<text x="940.00" y="562" text-anchor="middle" font-size="10" fill="#444">24</text>
<line x1="90" y1="540" x2="940" y2="540" stroke="#333" stroke-width="1.4"/>
<line x1="90" y1="70" x2="90" y2="540" stroke="#333" stroke-width="1.4"/>
<text x="515.00" y="592" text-anchor="middle" font-size="13" fill="#222">Total Zr concentration (mM)</text>
<text x="28" y="305.00" transform="rotate(-90 28 305.00)" text-anchor="middle" font-size="13" fill="#222">Median time to 100 (s)</text>
<polyline fill="none" stroke="#d95f02" stroke-width="2.2" points="90.00,283.40 126.96,158.98 163.91,148.33 200.87,296.73 237.83,178.54 274.78,276.91 311.74,263.31 348.70,246.77 385.65,250.81 422.61,304.09 459.57,212.51 496.52,272.45 533.48,255.36 570.43,251.60 607.39,196.38 644.35,258.16 681.30,372.92 718.26,274.41 755.22,209.23 792.17,255.14 829.13,150.96 866.09,366.03 903.04,276.73 940.00,294.42"/>
<polyline fill="none" stroke="#1b9e77" stroke-width="3.0" points="90.00,196.91 126.96,221.86 163.91,213.20 200.87,211.90 237.83,232.76 274.78,252.45 311.74,243.27 348.70,268.38 385.65,255.50 422.61,257.33 459.57,259.04 496.52,259.20 533.48,237.66 570.43,246.79 607.39,266.88 644.35,270.69 681.30,262.22 718.26,273.97 755.22,252.53 792.17,251.15 829.13,251.62 866.09,268.65 903.04,272.03 940.00,312.39"/>
<line x1="90.00" y1="452.36" x2="90.00" y2="114.45" stroke="#f1b58a" stroke-width="2"/>
<circle cx="90.00" cy="283.40" r="3.8" fill="#d95f02"/>
<line x1="126.96" y1="343.48" x2="126.96" y2="-25.52" stroke="#f1b58a" stroke-width="2"/>
<circle cx="126.96" cy="158.98" r="3.8" fill="#d95f02"/>
<line x1="163.91" y1="272.48" x2="163.91" y2="24.19" stroke="#f1b58a" stroke-width="2"/>
<circle cx="163.91" cy="148.33" r="3.8" fill="#d95f02"/>
<line x1="200.87" y1="456.17" x2="200.87" y2="137.28" stroke="#f1b58a" stroke-width="2"/>
<circle cx="200.87" cy="296.73" r="3.8" fill="#d95f02"/>
<line x1="237.83" y1="426.75" x2="237.83" y2="-69.67" stroke="#f1b58a" stroke-width="2"/>
<circle cx="237.83" cy="178.54" r="3.8" fill="#d95f02"/>
<line x1="274.78" y1="423.41" x2="274.78" y2="130.41" stroke="#f1b58a" stroke-width="2"/>
<circle cx="274.78" cy="276.91" r="3.8" fill="#d95f02"/>
<line x1="311.74" y1="436.18" x2="311.74" y2="90.44" stroke="#f1b58a" stroke-width="2"/>
<circle cx="311.74" cy="263.31" r="3.8" fill="#d95f02"/>
<line x1="348.70" y1="417.19" x2="348.70" y2="76.34" stroke="#f1b58a" stroke-width="2"/>
<circle cx="348.70" cy="246.77" r="3.8" fill="#d95f02"/>
<line x1="385.65" y1="412.94" x2="385.65" y2="88.69" stroke="#f1b58a" stroke-width="2"/>
<circle cx="385.65" cy="250.81" r="3.8" fill="#d95f02"/>
<line x1="422.61" y1="445.54" x2="422.61" y2="162.64" stroke="#f1b58a" stroke-width="2"/>
<circle cx="422.61" cy="304.09" r="3.8" fill="#d95f02"/>
<line x1="459.57" y1="385.76" x2="459.57" y2="39.25" stroke="#f1b58a" stroke-width="2"/>
<circle cx="459.57" cy="212.51" r="3.8" fill="#d95f02"/>
<line x1="496.52" y1="468.96" x2="496.52" y2="75.94" stroke="#f1b58a" stroke-width="2"/>
<circle cx="496.52" cy="272.45" r="3.8" fill="#d95f02"/>
<line x1="533.48" y1="521.48" x2="533.48" y2="-10.77" stroke="#f1b58a" stroke-width="2"/>
<circle cx="533.48" cy="255.36" r="3.8" fill="#d95f02"/>
<line x1="570.43" y1="451.61" x2="570.43" y2="51.59" stroke="#f1b58a" stroke-width="2"/>
<circle cx="570.43" cy="251.60" r="3.8" fill="#d95f02"/>
<line x1="607.39" y1="456.31" x2="607.39" y2="-63.54" stroke="#f1b58a" stroke-width="2"/>
<circle cx="607.39" cy="196.38" r="3.8" fill="#d95f02"/>
<line x1="644.35" y1="460.91" x2="644.35" y2="55.40" stroke="#f1b58a" stroke-width="2"/>
<circle cx="644.35" cy="258.16" r="3.8" fill="#d95f02"/>
<line x1="681.30" y1="471.34" x2="681.30" y2="274.50" stroke="#f1b58a" stroke-width="2"/>
<circle cx="681.30" cy="372.92" r="3.8" fill="#d95f02"/>
<line x1="718.26" y1="419.86" x2="718.26" y2="128.95" stroke="#f1b58a" stroke-width="2"/>
<circle cx="718.26" cy="274.41" r="3.8" fill="#d95f02"/>
<line x1="755.22" y1="379.27" x2="755.22" y2="39.20" stroke="#f1b58a" stroke-width="2"/>
<circle cx="755.22" cy="209.23" r="3.8" fill="#d95f02"/>
<line x1="792.17" y1="458.41" x2="792.17" y2="51.87" stroke="#f1b58a" stroke-width="2"/>
<circle cx="792.17" cy="255.14" r="3.8" fill="#d95f02"/>
<line x1="829.13" y1="411.90" x2="829.13" y2="-109.98" stroke="#f1b58a" stroke-width="2"/>
<circle cx="829.13" cy="150.96" r="3.8" fill="#d95f02"/>
<line x1="866.09" y1="507.87" x2="866.09" y2="224.18" stroke="#f1b58a" stroke-width="2"/>
<circle cx="866.09" cy="366.03" r="3.8" fill="#d95f02"/>
<line x1="903.04" y1="435.81" x2="903.04" y2="117.65" stroke="#f1b58a" stroke-width="2"/>
<circle cx="903.04" cy="276.73" r="3.8" fill="#d95f02"/>
<line x1="940.00" y1="477.79" x2="940.00" y2="111.05" stroke="#f1b58a" stroke-width="2"/>
<circle cx="940.00" cy="294.42" r="3.8" fill="#d95f02"/>
<rect x="685" y="84" width="215" height="74" rx="8" fill="#fafafa" stroke="#d0d0d0"/>
<line x1="699" y1="102" x2="729" y2="102" stroke="#d95f02" stroke-width="2.2"/>
<circle cx="714" cy="102" r="3.8" fill="#d95f02"/>
<text x="739" y="106" font-size="12" fill="#222">Median time</text>
<line x1="699" y1="124" x2="729" y2="124" stroke="#1b9e77" stroke-width="3.0"/>
<text x="739" y="128" font-size="12" fill="#222">5-point smooth</text>
<line x1="714" y1="140" x2="714" y2="152" stroke="#f1b58a" stroke-width="2"/>
<text x="739" y="148" font-size="12" fill="#222">Approx. IQR span</text>
</svg>