<svg xmlns="http://www.w3.org/2000/svg" width="1280" height="860" viewBox="0 0 1280 860">
<rect width="100%" height="100%" fill="#fffdf8"/>
<style>
text { font-family: "Segoe UI", Arial, sans-serif; }
</style>
<text x="110" y="38" font-size="27" font-weight="bold" fill="#1f1f1f">Legacy BTB-MOL nucleation: survival curves by Zr quartile</text>
<text x="{left}" y="63" font-size="13" fill="#555555">Events are trajectory completions; unfinished trajectories are treated as right-censored at their final observed time.</text>
<line x1="110.00" y1="90" x2="110.00" y2="520" stroke="#dddddd" stroke-width="1"/>
<text x="110.00" y="544.00" text-anchor="middle" font-size="12" fill="#333333">0</text>
<line x1="198.27" y1="90" x2="198.27" y2="520" stroke="#dddddd" stroke-width="1"/>
<text x="198.27" y="544.00" text-anchor="middle" font-size="12" fill="#333333">0</text>
<line x1="295.00" y1="90" x2="295.00" y2="520" stroke="#dddddd" stroke-width="1"/>
<text x="295.00" y="544.00" text-anchor="middle" font-size="12" fill="#333333">0</text>
<line x1="383.27" y1="90" x2="383.27" y2="520" stroke="#dddddd" stroke-width="1"/>
<text x="383.27" y="544.00" text-anchor="middle" font-size="12" fill="#333333">0</text>
<line x1="480.00" y1="90" x2="480.00" y2="520" stroke="#dddddd" stroke-width="1"/>
<text x="480.00" y="544.00" text-anchor="middle" font-size="12" fill="#333333">0</text>
<line x1="568.27" y1="90" x2="568.27" y2="520" stroke="#dddddd" stroke-width="1"/>
<text x="568.27" y="544.00" text-anchor="middle" font-size="12" fill="#333333">0</text>
<line x1="665.00" y1="90" x2="665.00" y2="520" stroke="#dddddd" stroke-width="1"/>
<text x="665.00" y="544.00" text-anchor="middle" font-size="12" fill="#333333">1</text>
<line x1="753.27" y1="90" x2="753.27" y2="520" stroke="#dddddd" stroke-width="1"/>
<text x="753.27" y="544.00" text-anchor="middle" font-size="12" fill="#333333">3</text>
<line x1="850.00" y1="90" x2="850.00" y2="520" stroke="#dddddd" stroke-width="1"/>
<text x="850.00" y="544.00" text-anchor="middle" font-size="12" fill="#333333">10</text>
<line x1="938.27" y1="90" x2="938.27" y2="520" stroke="#dddddd" stroke-width="1"/>
<text x="938.27" y="544.00" text-anchor="middle" font-size="12" fill="#333333">30</text>
<line x1="1035.00" y1="90" x2="1035.00" y2="520" stroke="#dddddd" stroke-width="1"/>
<text x="1035.00" y="544.00" text-anchor="middle" font-size="12" fill="#333333">100</text>
<line x1="1123.27" y1="90" x2="1123.27" y2="520" stroke="#dddddd" stroke-width="1"/>
<text x="1123.27" y="544.00" text-anchor="middle" font-size="12" fill="#333333">300</text>
<line x1="1220.00" y1="90" x2="1220.00" y2="520" stroke="#dddddd" stroke-width="1"/>
<text x="1220.00" y="544.00" text-anchor="middle" font-size="12" fill="#333333">1e3</text>
<line x1="110" y1="520.00" x2="1220" y2="520.00" stroke="#dddddd" stroke-width="1"/>
<text x="100" y="524.00" text-anchor="end" font-size="12" fill="#333333">0.00</text>
<line x1="110" y1="412.50" x2="1220" y2="412.50" stroke="#dddddd" stroke-width="1"/>
<text x="100" y="416.50" text-anchor="end" font-size="12" fill="#333333">0.25</text>
<line x1="110" y1="305.00" x2="1220" y2="305.00" stroke="#dddddd" stroke-width="1"/>
<text x="100" y="309.00" text-anchor="end" font-size="12" fill="#333333">0.50</text>
<line x1="110" y1="197.50" x2="1220" y2="197.50" stroke="#dddddd" stroke-width="1"/>
<text x="100" y="201.50" text-anchor="end" font-size="12" fill="#333333">0.75</text>
<line x1="110" y1="90.00" x2="1220" y2="90.00" stroke="#dddddd" stroke-width="1"/>
<text x="100" y="94.00" text-anchor="end" font-size="12" fill="#333333">1.00</text>
<line x1="110" y1="520" x2="1220" y2="520" stroke="#333333" stroke-width="1.5"/>
<line x1="110" y1="90" x2="110" y2="520" stroke="#333333" stroke-width="1.5"/>
<text x="665.00" y="574.00" text-anchor="middle" font-size="13" fill="#333333">Observed time (s, log scale)</text>
<text x="44" y="305.00" transform="rotate(-90 44 305.00)" text-anchor="middle" font-size="13" fill="#333333">Survival probability</text>
<polyline fill="none" stroke="#1f77b4" stroke-width="3" points="110.00,90.00 297.72,90.00 297.72,92.15 299.47,92.15 299.47,94.30 310.81,94.30 310.81,96.45 342.82,96.45 342.82,98.60 385.99,98.60 385.99,100.75 392.57,100.75 392.57,102.90 414.04,102.90 414.04,105.05 414.51,105.05 414.51,107.20 417.28,107.20 417.28,109.35 421.36,109.35 421.36,111.50 449.14,111.50 449.14,113.65 464.67,113.65 464.67,115.80 468.90,115.80 468.90,117.95 492.02,117.95 492.02,120.10 494.67,120.10 494.67,122.25 499.68,122.25 499.68,124.40 515.18,124.40 515.18,126.55 517.70,126.55 517.70,128.70 520.15,128.70 520.15,130.85 521.56,130.85 521.56,133.00 529.62,133.00 529.62,135.15 532.84,135.15 532.84,137.30 535.27,137.30 535.27,139.45 557.34,139.45 557.34,141.60 560.73,141.60 560.73,143.75 564.04,143.75 564.04,145.90 569.05,145.90 569.05,148.05 571.70,148.05 571.70,150.20 572.13,150.20 572.13,152.35 584.68,152.35 584.68,154.50 588.62,154.50 588.62,156.65 590.09,156.65 590.09,158.80 592.95,158.80 592.95,160.95 598.69,160.95 598.69,163.10 598.87,163.10 598.87,165.25 605.82,165.25 605.82,167.40 620.93,167.40 620.93,169.56 628.46,169.56 628.46,171.73 628.90,171.73 628.90,173.89 631.32,173.89 631.32,176.05 657.82,176.05 657.82,178.22 675.89,178.22 675.89,180.38 677.66,180.38 677.66,182.54 686.86,182.54 686.86,184.71 695.16,184.71 695.16,186.87 695.71,186.87 695.71,189.03 702.40,189.03 702.40,191.20 704.76,191.20 704.76,193.36 710.77,193.36 710.77,195.52 714.74,195.52 714.74,197.68 723.79,197.68 723.79,199.85 724.77,199.85 724.77,202.01 726.98,202.01 726.98,204.17 735.00,204.17 735.00,206.34 743.20,206.34 743.20,208.50 751.46,208.50 751.46,210.68 758.36,210.68 758.36,212.86 776.71,212.86 776.71,215.04 778.48,215.04 778.48,217.21 779.31,217.21 779.31,219.39 786.85,219.39 786.85,221.59 787.95,221.59 787.95,223.78 791.22,223.78 791.22,225.97 791.44,225.97 791.44,228.17 792.62,228.17 792.62,230.36 798.69,230.36 798.69,232.56 801.22,232.56 801.22,234.75 804.88,234.75 804.88,236.95 805.45,236.95 805.45,239.14 806.65,239.14 806.65,241.33 807.26,241.33 807.26,243.53 807.56,243.53 807.56,245.72 808.73,245.72 808.73,247.92 815.63,247.92 815.63,250.11 817.96,250.11 817.96,252.31 818.53,252.31 818.53,254.52 819.43,254.52 819.43,256.73 821.11,256.73 821.11,258.94 821.35,258.94 821.35,261.15 831.56,261.15 831.56,263.37 831.97,263.37 831.97,265.58 832.87,265.58 832.87,267.79 837.90,267.79 837.90,270.00 840.60,270.00 840.60,272.22 841.98,272.22 841.98,274.43 842.94,274.43 842.94,276.64 844.20,276.64 844.20,278.85 845.24,278.85 845.24,281.07 848.75,281.07 848.75,283.28 851.28,283.28 851.28,285.49 851.33,285.49 851.33,287.70 852.66,287.70 852.66,289.92 857.51,289.92 857.51,292.13 857.82,292.13 857.82,294.34 865.51,294.34 865.51,296.55 866.55,296.55 866.55,298.76 867.38,298.76 867.38,300.98 869.45,300.98 869.45,303.19 875.29,303.19 875.29,305.40 880.04,305.40 880.04,307.61 881.32,307.61 881.32,309.83 882.93,309.83 882.93,312.06 894.42,312.06 894.42,314.30 897.52,314.30 897.52,316.53 898.31,316.53 898.31,318.77 901.48,318.77 901.48,321.01 912.39,321.01 912.39,323.27 916.15,323.27 916.15,325.53 917.29,325.53 917.29,327.79 919.77,327.79 919.77,330.05 923.93,330.05 923.93,332.34 928.91,332.34 928.91,334.66 932.78,334.66 932.78,336.97 934.90,336.97 934.90,339.29 936.22,339.29 936.22,341.61 941.29,341.61 941.29,343.95 943.24,343.95 943.24,346.30 951.24,346.30 951.24,348.65 953.25,348.65 953.25,351.00 953.52,351.00 953.52,353.34 956.00,353.34 956.00,355.72 960.65,355.72 960.65,358.14 962.77,358.14 962.77,360.56 967.33,360.56 967.33,362.97 971.03,362.97 971.03,365.46 978.79,365.46 978.79,367.96 983.77,367.96 983.77,370.49 1004.32,370.49 1004.32,373.16 1013.55,373.16 1013.55,375.88 1016.85,375.88 1016.85,378.60 1035.33,378.60 1035.33,381.37 1046.12,381.37 1046.12,384.26 1220.00,384.26"/>
<line x1="616.34" y1="161.40" x2="616.34" y2="173.40" stroke="#1f77b4" stroke-width="1.5"/>
<line x1="749.06" y1="202.50" x2="749.06" y2="214.50" stroke="#1f77b4" stroke-width="1.5"/>
<line x1="784.26" y1="213.39" x2="784.26" y2="225.39" stroke="#1f77b4" stroke-width="1.5"/>
<line x1="818.25" y1="246.31" x2="818.25" y2="258.31" stroke="#1f77b4" stroke-width="1.5"/>
<line x1="882.11" y1="303.83" x2="882.11" y2="315.83" stroke="#1f77b4" stroke-width="1.5"/>
<line x1="912.26" y1="315.01" x2="912.26" y2="327.01" stroke="#1f77b4" stroke-width="1.5"/>
<line x1="923.69" y1="324.05" x2="923.69" y2="336.05" stroke="#1f77b4" stroke-width="1.5"/>
<line x1="928.35" y1="326.34" x2="928.35" y2="338.34" stroke="#1f77b4" stroke-width="1.5"/>
<line x1="936.22" y1="335.61" x2="936.22" y2="347.61" stroke="#1f77b4" stroke-width="1.5"/>
<line x1="953.98" y1="347.34" x2="953.98" y2="359.34" stroke="#1f77b4" stroke-width="1.5"/>
<line x1="959.35" y1="349.72" x2="959.35" y2="361.72" stroke="#1f77b4" stroke-width="1.5"/>
<line x1="969.61" y1="356.97" x2="969.61" y2="368.97" stroke="#1f77b4" stroke-width="1.5"/>
<line x1="970.29" y1="356.97" x2="970.29" y2="368.97" stroke="#1f77b4" stroke-width="1.5"/>
<line x1="981.37" y1="361.96" x2="981.37" y2="373.96" stroke="#1f77b4" stroke-width="1.5"/>
<line x1="992.44" y1="364.49" x2="992.44" y2="376.49" stroke="#1f77b4" stroke-width="1.5"/>
<line x1="992.68" y1="364.49" x2="992.68" y2="376.49" stroke="#1f77b4" stroke-width="1.5"/>
<line x1="993.04" y1="364.49" x2="993.04" y2="376.49" stroke="#1f77b4" stroke-width="1.5"/>
<line x1="1013.49" y1="367.16" x2="1013.49" y2="379.16" stroke="#1f77b4" stroke-width="1.5"/>
<line x1="1025.30" y1="372.60" x2="1025.30" y2="384.60" stroke="#1f77b4" stroke-width="1.5"/>
<line x1="1036.40" y1="375.37" x2="1036.40" y2="387.37" stroke="#1f77b4" stroke-width="1.5"/>
<line x1="1045.08" y1="375.37" x2="1045.08" y2="387.37" stroke="#1f77b4" stroke-width="1.5"/>
<line x1="1054.48" y1="378.26" x2="1054.48" y2="390.26" stroke="#1f77b4" stroke-width="1.5"/>
<line x1="1068.33" y1="378.26" x2="1068.33" y2="390.26" stroke="#1f77b4" stroke-width="1.5"/>
<line x1="1075.13" y1="378.26" x2="1075.13" y2="390.26" stroke="#1f77b4" stroke-width="1.5"/>
<line x1="1082.34" y1="378.26" x2="1082.34" y2="390.26" stroke="#1f77b4" stroke-width="1.5"/>
<line x1="1088.09" y1="378.26" x2="1088.09" y2="390.26" stroke="#1f77b4" stroke-width="1.5"/>
<line x1="1093.44" y1="378.26" x2="1093.44" y2="390.26" stroke="#1f77b4" stroke-width="1.5"/>
<line x1="1093.52" y1="378.26" x2="1093.52" y2="390.26" stroke="#1f77b4" stroke-width="1.5"/>
<line x1="1093.52" y1="378.26" x2="1093.52" y2="390.26" stroke="#1f77b4" stroke-width="1.5"/>
<line x1="1093.53" y1="378.26" x2="1093.53" y2="390.26" stroke="#1f77b4" stroke-width="1.5"/>
<line x1="1093.53" y1="378.26" x2="1093.53" y2="390.26" stroke="#1f77b4" stroke-width="1.5"/>
<line x1="1093.54" y1="378.26" x2="1093.54" y2="390.26" stroke="#1f77b4" stroke-width="1.5"/>
<line x1="1093.58" y1="378.26" x2="1093.58" y2="390.26" stroke="#1f77b4" stroke-width="1.5"/>
<line x1="1093.59" y1="378.26" x2="1093.59" y2="390.26" stroke="#1f77b4" stroke-width="1.5"/>
<line x1="1095.06" y1="378.26" x2="1095.06" y2="390.26" stroke="#1f77b4" stroke-width="1.5"/>
<line x1="1096.70" y1="378.26" x2="1096.70" y2="390.26" stroke="#1f77b4" stroke-width="1.5"/>
<line x1="1096.81" y1="378.26" x2="1096.81" y2="390.26" stroke="#1f77b4" stroke-width="1.5"/>
<line x1="1096.83" y1="378.26" x2="1096.83" y2="390.26" stroke="#1f77b4" stroke-width="1.5"/>
<line x1="1096.83" y1="378.26" x2="1096.83" y2="390.26" stroke="#1f77b4" stroke-width="1.5"/>
<line x1="1096.83" y1="378.26" x2="1096.83" y2="390.26" stroke="#1f77b4" stroke-width="1.5"/>
<line x1="1096.85" y1="378.26" x2="1096.85" y2="390.26" stroke="#1f77b4" stroke-width="1.5"/>
<line x1="1096.86" y1="378.26" x2="1096.86" y2="390.26" stroke="#1f77b4" stroke-width="1.5"/>
<line x1="1096.87" y1="378.26" x2="1096.87" y2="390.26" stroke="#1f77b4" stroke-width="1.5"/>
<line x1="1098.26" y1="378.26" x2="1098.26" y2="390.26" stroke="#1f77b4" stroke-width="1.5"/>
<line x1="1098.27" y1="378.26" x2="1098.27" y2="390.26" stroke="#1f77b4" stroke-width="1.5"/>
<line x1="1098.35" y1="378.26" x2="1098.35" y2="390.26" stroke="#1f77b4" stroke-width="1.5"/>
<line x1="1098.37" y1="378.26" x2="1098.37" y2="390.26" stroke="#1f77b4" stroke-width="1.5"/>
<line x1="1098.37" y1="378.26" x2="1098.37" y2="390.26" stroke="#1f77b4" stroke-width="1.5"/>
<line x1="1098.39" y1="378.26" x2="1098.39" y2="390.26" stroke="#1f77b4" stroke-width="1.5"/>
<line x1="1098.46" y1="378.26" x2="1098.46" y2="390.26" stroke="#1f77b4" stroke-width="1.5"/>
<line x1="1098.98" y1="378.26" x2="1098.98" y2="390.26" stroke="#1f77b4" stroke-width="1.5"/>
<line x1="1099.36" y1="378.26" x2="1099.36" y2="390.26" stroke="#1f77b4" stroke-width="1.5"/>
<line x1="1099.37" y1="378.26" x2="1099.37" y2="390.26" stroke="#1f77b4" stroke-width="1.5"/>
<line x1="1099.37" y1="378.26" x2="1099.37" y2="390.26" stroke="#1f77b4" stroke-width="1.5"/>
<line x1="1099.47" y1="378.26" x2="1099.47" y2="390.26" stroke="#1f77b4" stroke-width="1.5"/>
<line x1="1099.50" y1="378.26" x2="1099.50" y2="390.26" stroke="#1f77b4" stroke-width="1.5"/>
<line x1="1099.50" y1="378.26" x2="1099.50" y2="390.26" stroke="#1f77b4" stroke-width="1.5"/>
<line x1="1099.99" y1="378.26" x2="1099.99" y2="390.26" stroke="#1f77b4" stroke-width="1.5"/>
<line x1="1100.02" y1="378.26" x2="1100.02" y2="390.26" stroke="#1f77b4" stroke-width="1.5"/>
<line x1="1100.02" y1="378.26" x2="1100.02" y2="390.26" stroke="#1f77b4" stroke-width="1.5"/>
<line x1="1100.03" y1="378.26" x2="1100.03" y2="390.26" stroke="#1f77b4" stroke-width="1.5"/>
<line x1="1100.03" y1="378.26" x2="1100.03" y2="390.26" stroke="#1f77b4" stroke-width="1.5"/>
<line x1="1100.04" y1="378.26" x2="1100.04" y2="390.26" stroke="#1f77b4" stroke-width="1.5"/>
<line x1="1100.08" y1="378.26" x2="1100.08" y2="390.26" stroke="#1f77b4" stroke-width="1.5"/>
<line x1="1106.80" y1="378.26" x2="1106.80" y2="390.26" stroke="#1f77b4" stroke-width="1.5"/>
<line x1="1107.95" y1="378.26" x2="1107.95" y2="390.26" stroke="#1f77b4" stroke-width="1.5"/>
<line x1="1108.03" y1="378.26" x2="1108.03" y2="390.26" stroke="#1f77b4" stroke-width="1.5"/>
<line x1="1108.55" y1="378.26" x2="1108.55" y2="390.26" stroke="#1f77b4" stroke-width="1.5"/>
<polyline fill="none" stroke="#d62728" stroke-width="3" points="110.00,90.00 388.37,90.00 388.37,92.15 395.70,92.15 395.70,94.30 407.26,94.30 407.26,96.45 411.72,96.45 411.72,98.60 429.54,98.60 429.54,100.75 438.38,100.75 438.38,102.90 440.07,102.90 440.07,105.05 449.19,105.05 449.19,107.20 458.64,107.20 458.64,109.35 471.06,109.35 471.06,111.50 472.63,111.50 472.63,113.65 497.95,113.65 497.95,115.80 501.03,115.80 501.03,117.95 510.36,117.95 510.36,120.10 511.53,120.10 511.53,122.25 513.16,122.25 513.16,124.40 516.45,124.40 516.45,126.55 516.62,126.55 516.62,128.70 517.25,128.70 517.25,130.85 523.21,130.85 523.21,133.00 536.17,133.00 536.17,135.15 536.54,135.15 536.54,137.30 539.26,137.30 539.26,139.45 540.33,139.45 540.33,141.60 544.46,141.60 544.46,143.75 545.44,143.75 545.44,145.90 547.31,145.90 547.31,148.05 548.59,148.05 548.59,150.20 554.05,150.20 554.05,152.35 554.06,152.35 554.06,154.50 567.93,154.50 567.93,156.65 573.23,156.65 573.23,158.80 573.34,158.80 573.34,160.95 573.92,160.95 573.92,163.10 580.08,163.10 580.08,165.25 581.67,165.25 581.67,167.40 584.17,167.40 584.17,169.55 587.74,169.55 587.74,171.70 588.84,171.70 588.84,173.85 595.15,173.85 595.15,176.00 596.79,176.00 596.79,178.15 597.53,178.15 597.53,180.30 602.91,180.30 602.91,182.45 609.41,182.45 609.41,184.60 622.16,184.60 622.16,186.75 625.44,186.75 625.44,188.90 635.38,188.90 635.38,191.05 638.32,191.05 638.32,193.20 638.43,193.20 638.43,195.35 640.28,195.35 640.28,197.50 649.78,197.50 649.78,199.65 651.26,199.65 651.26,201.80 652.27,201.80 652.27,203.95 654.75,203.95 654.75,206.10 655.54,206.10 655.54,208.25 666.59,208.25 666.59,210.40 668.00,210.40 668.00,212.55 669.21,212.55 669.21,214.70 676.49,214.70 676.49,216.85 678.74,216.85 678.74,219.02 680.78,219.02 680.78,221.18 683.07,221.18 683.07,223.35 684.62,223.35 684.62,225.51 685.98,225.51 685.98,227.68 687.43,227.68 687.43,229.84 690.69,229.84 690.69,232.01 691.61,232.01 691.61,234.17 692.06,234.17 692.06,236.34 694.11,236.34 694.11,238.50 695.25,238.50 695.25,240.67 697.72,240.67 697.72,242.83 699.36,242.83 699.36,245.00 702.45,245.00 702.45,247.16 707.85,247.16 707.85,249.33 708.37,249.33 708.37,251.50 710.57,251.50 710.57,253.66 732.10,253.66 732.10,255.83 732.17,255.83 732.17,257.99 733.95,257.99 733.95,260.16 734.43,260.16 734.43,262.32 743.11,262.32 743.11,264.49 743.23,264.49 743.23,266.65 752.85,266.65 752.85,268.82 753.20,268.82 753.20,270.98 755.36,270.98 755.36,273.15 755.73,273.15 755.73,275.31 761.17,275.31 761.17,277.48 761.90,277.48 761.90,279.65 765.33,279.65 765.33,281.81 766.98,281.81 766.98,283.98 768.71,283.98 768.71,286.14 774.31,286.14 774.31,288.31 774.84,288.31 774.84,290.47 778.71,290.47 778.71,292.64 779.72,292.64 779.72,294.80 779.79,294.80 779.79,296.97 780.08,296.97 780.08,299.13 783.58,299.13 783.58,301.30 786.75,301.30 786.75,303.46 796.94,303.46 796.94,305.63 798.08,305.63 798.08,307.79 799.23,307.79 799.23,309.96 803.79,309.96 803.79,312.15 806.37,312.15 806.37,314.34 808.50,314.34 808.50,316.52 811.53,316.52 811.53,318.71 811.73,318.71 811.73,320.90 812.22,320.90 812.22,323.09 817.07,323.09 817.07,325.28 827.00,325.28 827.00,327.46 831.36,327.46 831.36,329.65 831.96,329.65 831.96,331.84 835.19,331.84 835.19,334.03 836.78,334.03 836.78,336.22 837.17,336.22 837.17,338.40 842.90,338.40 842.90,340.59 845.06,340.59 845.06,342.78 845.66,342.78 845.66,344.97 846.34,344.97 846.34,347.15 850.39,347.15 850.39,349.34 851.58,349.34 851.58,351.53 859.72,351.53 859.72,353.72 863.31,353.72 863.31,355.91 865.49,355.91 865.49,358.09 877.15,358.09 877.15,360.28 885.26,360.28 885.26,362.47 919.23,362.47 919.23,364.69 921.97,364.69 921.97,366.91 922.08,366.91 922.08,369.13 931.51,369.13 931.51,371.38 941.65,371.38 941.65,373.66 942.91,373.66 942.91,375.95 960.89,375.95 960.89,378.24 965.57,378.24 965.57,380.52 1011.56,380.52 1011.56,382.93 1014.14,382.93 1014.14,385.33 1033.38,385.33 1033.38,388.08 1220.00,388.08"/>
<line x1="678.48" y1="210.85" x2="678.48" y2="222.85" stroke="#d62728" stroke-width="1.5"/>
<line x1="800.83" y1="303.96" x2="800.83" y2="315.96" stroke="#d62728" stroke-width="1.5"/>
<line x1="906.26" y1="356.47" x2="906.26" y2="368.47" stroke="#d62728" stroke-width="1.5"/>
<line x1="926.07" y1="363.13" x2="926.07" y2="375.13" stroke="#d62728" stroke-width="1.5"/>
<line x1="941.59" y1="365.38" x2="941.59" y2="377.38" stroke="#d62728" stroke-width="1.5"/>
<line x1="969.28" y1="374.52" x2="969.28" y2="386.52" stroke="#d62728" stroke-width="1.5"/>
<line x1="990.48" y1="374.52" x2="990.48" y2="386.52" stroke="#d62728" stroke-width="1.5"/>
<line x1="993.24" y1="374.52" x2="993.24" y2="386.52" stroke="#d62728" stroke-width="1.5"/>
<line x1="1019.27" y1="379.33" x2="1019.27" y2="391.33" stroke="#d62728" stroke-width="1.5"/>
<line x1="1021.65" y1="379.33" x2="1021.65" y2="391.33" stroke="#d62728" stroke-width="1.5"/>
<line x1="1024.85" y1="379.33" x2="1024.85" y2="391.33" stroke="#d62728" stroke-width="1.5"/>
<line x1="1026.13" y1="379.33" x2="1026.13" y2="391.33" stroke="#d62728" stroke-width="1.5"/>
<line x1="1027.17" y1="379.33" x2="1027.17" y2="391.33" stroke="#d62728" stroke-width="1.5"/>
<line x1="1027.18" y1="379.33" x2="1027.18" y2="391.33" stroke="#d62728" stroke-width="1.5"/>
<line x1="1030.82" y1="379.33" x2="1030.82" y2="391.33" stroke="#d62728" stroke-width="1.5"/>
<line x1="1038.61" y1="382.08" x2="1038.61" y2="394.08" stroke="#d62728" stroke-width="1.5"/>
<line x1="1043.55" y1="382.08" x2="1043.55" y2="394.08" stroke="#d62728" stroke-width="1.5"/>
<line x1="1047.69" y1="382.08" x2="1047.69" y2="394.08" stroke="#d62728" stroke-width="1.5"/>
<line x1="1048.55" y1="382.08" x2="1048.55" y2="394.08" stroke="#d62728" stroke-width="1.5"/>
<line x1="1048.65" y1="382.08" x2="1048.65" y2="394.08" stroke="#d62728" stroke-width="1.5"/>
<line x1="1057.89" y1="382.08" x2="1057.89" y2="394.08" stroke="#d62728" stroke-width="1.5"/>
<line x1="1057.91" y1="382.08" x2="1057.91" y2="394.08" stroke="#d62728" stroke-width="1.5"/>
<line x1="1058.08" y1="382.08" x2="1058.08" y2="394.08" stroke="#d62728" stroke-width="1.5"/>
<line x1="1058.23" y1="382.08" x2="1058.23" y2="394.08" stroke="#d62728" stroke-width="1.5"/>
<line x1="1073.23" y1="382.08" x2="1073.23" y2="394.08" stroke="#d62728" stroke-width="1.5"/>
<line x1="1073.31" y1="382.08" x2="1073.31" y2="394.08" stroke="#d62728" stroke-width="1.5"/>
<line x1="1073.31" y1="382.08" x2="1073.31" y2="394.08" stroke="#d62728" stroke-width="1.5"/>
<line x1="1073.59" y1="382.08" x2="1073.59" y2="394.08" stroke="#d62728" stroke-width="1.5"/>
<line x1="1075.59" y1="382.08" x2="1075.59" y2="394.08" stroke="#d62728" stroke-width="1.5"/>
<line x1="1075.64" y1="382.08" x2="1075.64" y2="394.08" stroke="#d62728" stroke-width="1.5"/>
<line x1="1082.68" y1="382.08" x2="1082.68" y2="394.08" stroke="#d62728" stroke-width="1.5"/>
<line x1="1082.70" y1="382.08" x2="1082.70" y2="394.08" stroke="#d62728" stroke-width="1.5"/>
<line x1="1082.71" y1="382.08" x2="1082.71" y2="394.08" stroke="#d62728" stroke-width="1.5"/>
<line x1="1082.74" y1="382.08" x2="1082.74" y2="394.08" stroke="#d62728" stroke-width="1.5"/>
<line x1="1082.76" y1="382.08" x2="1082.76" y2="394.08" stroke="#d62728" stroke-width="1.5"/>
<line x1="1083.80" y1="382.08" x2="1083.80" y2="394.08" stroke="#d62728" stroke-width="1.5"/>
<line x1="1085.01" y1="382.08" x2="1085.01" y2="394.08" stroke="#d62728" stroke-width="1.5"/>
<line x1="1085.01" y1="382.08" x2="1085.01" y2="394.08" stroke="#d62728" stroke-width="1.5"/>
<line x1="1085.02" y1="382.08" x2="1085.02" y2="394.08" stroke="#d62728" stroke-width="1.5"/>
<line x1="1085.05" y1="382.08" x2="1085.05" y2="394.08" stroke="#d62728" stroke-width="1.5"/>
<line x1="1085.05" y1="382.08" x2="1085.05" y2="394.08" stroke="#d62728" stroke-width="1.5"/>
<line x1="1085.11" y1="382.08" x2="1085.11" y2="394.08" stroke="#d62728" stroke-width="1.5"/>
<line x1="1095.70" y1="382.08" x2="1095.70" y2="394.08" stroke="#d62728" stroke-width="1.5"/>
<line x1="1095.70" y1="382.08" x2="1095.70" y2="394.08" stroke="#d62728" stroke-width="1.5"/>
<line x1="1095.71" y1="382.08" x2="1095.71" y2="394.08" stroke="#d62728" stroke-width="1.5"/>
<line x1="1095.74" y1="382.08" x2="1095.74" y2="394.08" stroke="#d62728" stroke-width="1.5"/>
<line x1="1095.74" y1="382.08" x2="1095.74" y2="394.08" stroke="#d62728" stroke-width="1.5"/>
<line x1="1095.78" y1="382.08" x2="1095.78" y2="394.08" stroke="#d62728" stroke-width="1.5"/>
<line x1="1095.80" y1="382.08" x2="1095.80" y2="394.08" stroke="#d62728" stroke-width="1.5"/>
<line x1="1095.82" y1="382.08" x2="1095.82" y2="394.08" stroke="#d62728" stroke-width="1.5"/>
<line x1="1098.20" y1="382.08" x2="1098.20" y2="394.08" stroke="#d62728" stroke-width="1.5"/>
<line x1="1098.25" y1="382.08" x2="1098.25" y2="394.08" stroke="#d62728" stroke-width="1.5"/>
<line x1="1098.29" y1="382.08" x2="1098.29" y2="394.08" stroke="#d62728" stroke-width="1.5"/>
<line x1="1098.30" y1="382.08" x2="1098.30" y2="394.08" stroke="#d62728" stroke-width="1.5"/>
<line x1="1098.37" y1="382.08" x2="1098.37" y2="394.08" stroke="#d62728" stroke-width="1.5"/>
<line x1="1098.37" y1="382.08" x2="1098.37" y2="394.08" stroke="#d62728" stroke-width="1.5"/>
<line x1="1099.51" y1="382.08" x2="1099.51" y2="394.08" stroke="#d62728" stroke-width="1.5"/>
<line x1="1099.94" y1="382.08" x2="1099.94" y2="394.08" stroke="#d62728" stroke-width="1.5"/>
<line x1="1106.70" y1="382.08" x2="1106.70" y2="394.08" stroke="#d62728" stroke-width="1.5"/>
<line x1="1106.74" y1="382.08" x2="1106.74" y2="394.08" stroke="#d62728" stroke-width="1.5"/>
<line x1="1108.06" y1="382.08" x2="1108.06" y2="394.08" stroke="#d62728" stroke-width="1.5"/>
<line x1="1108.39" y1="382.08" x2="1108.39" y2="394.08" stroke="#d62728" stroke-width="1.5"/>
<line x1="1108.40" y1="382.08" x2="1108.40" y2="394.08" stroke="#d62728" stroke-width="1.5"/>
<polyline fill="none" stroke="#2ca02c" stroke-width="3" points="110.00,90.00 285.38,90.00 285.38,92.15 297.99,92.15 297.99,94.30 300.72,94.30 300.72,96.45 304.13,96.45 304.13,98.60 308.33,98.60 308.33,100.75 311.52,100.75 311.52,102.90 338.43,102.90 338.43,105.05 344.42,105.05 344.42,107.20 355.51,107.20 355.51,109.35 393.09,109.35 393.09,111.50 453.74,111.50 453.74,113.65 470.61,113.65 470.61,115.80 482.98,115.80 482.98,117.95 484.37,117.95 484.37,120.10 495.33,120.10 495.33,122.25 507.63,122.25 507.63,124.40 512.18,124.40 512.18,126.55 517.49,126.55 517.49,128.70 520.41,128.70 520.41,130.85 522.79,130.85 522.79,133.00 527.82,133.00 527.82,135.15 529.28,135.15 529.28,137.30 534.46,137.30 534.46,139.45 536.01,139.45 536.01,141.60 542.65,141.60 542.65,143.75 543.54,143.75 543.54,145.90 545.61,145.90 545.61,148.05 547.31,148.05 547.31,150.20 555.29,150.20 555.29,152.35 557.13,152.35 557.13,154.50 558.75,154.50 558.75,156.65 563.31,156.65 563.31,158.80 567.95,158.80 567.95,160.95 570.30,160.95 570.30,163.10 576.29,163.10 576.29,165.25 579.13,165.25 579.13,167.40 584.16,167.40 584.16,169.55 585.46,169.55 585.46,171.70 585.57,171.70 585.57,173.85 589.55,173.85 589.55,176.00 590.65,176.00 590.65,178.15 600.86,178.15 600.86,180.30 612.90,180.30 612.90,182.45 615.39,182.45 615.39,184.60 618.75,184.60 618.75,186.75 621.73,186.75 621.73,188.90 625.03,188.90 625.03,191.05 636.08,191.05 636.08,193.20 638.95,193.20 638.95,195.35 646.28,195.35 646.28,197.50 648.29,197.50 648.29,199.65 648.42,199.65 648.42,201.80 651.05,201.80 651.05,203.95 668.27,203.95 668.27,206.10 673.35,206.10 673.35,208.25 674.50,208.25 674.50,210.40 677.59,210.40 677.59,212.55 678.99,212.55 678.99,214.70 679.53,214.70 679.53,216.85 683.92,216.85 683.92,219.00 687.42,219.00 687.42,221.15 690.74,221.15 690.74,223.30 694.73,223.30 694.73,225.45 696.22,225.45 696.22,227.60 702.64,227.60 702.64,229.75 706.47,229.75 706.47,231.90 707.47,231.90 707.47,234.05 707.64,234.05 707.64,236.20 707.64,236.20 707.64,238.35 707.87,238.35 707.87,240.50 711.12,240.50 711.12,242.65 714.01,242.65 714.01,244.80 714.88,244.80 714.88,246.95 715.40,246.95 715.40,249.10 718.32,249.10 718.32,251.25 720.96,251.25 720.96,253.40 721.30,253.40 721.30,255.55 723.39,255.55 723.39,257.70 725.43,257.70 725.43,259.85 726.69,259.85 726.69,262.00 730.49,262.00 730.49,264.15 733.96,264.15 733.96,266.30 734.68,266.30 734.68,268.45 736.94,268.45 736.94,270.60 739.36,270.60 739.36,272.75 741.14,272.75 741.14,274.90 743.17,274.90 743.17,277.05 746.07,277.05 746.07,279.20 752.39,279.20 752.39,281.35 752.69,281.35 752.69,283.50 755.34,283.50 755.34,285.65 759.41,285.65 759.41,287.80 766.27,287.80 766.27,289.95 766.50,289.95 766.50,292.10 767.09,292.10 767.09,294.25 767.87,294.25 767.87,296.40 768.76,296.40 768.76,298.55 769.13,298.55 769.13,300.70 769.61,300.70 769.61,302.85 769.82,302.85 769.82,305.00 771.02,305.00 771.02,307.15 772.00,307.15 772.00,309.30 774.28,309.30 774.28,311.45 775.14,311.45 775.14,313.60 775.14,313.60 775.14,315.75 776.39,315.75 776.39,317.90 776.91,317.90 776.91,320.05 779.63,320.05 779.63,322.20 782.40,322.20 782.40,324.35 788.82,324.35 788.82,326.50 789.76,326.50 789.76,328.65 790.15,328.65 790.15,330.80 797.52,330.80 797.52,332.95 797.82,332.95 797.82,335.10 798.00,335.10 798.00,337.25 798.23,337.25 798.23,339.40 800.66,339.40 800.66,341.55 800.70,341.55 800.70,343.70 800.84,343.70 800.84,345.85 804.12,345.85 804.12,348.00 807.16,348.00 807.16,350.15 808.07,350.15 808.07,352.30 813.14,352.30 813.14,354.45 814.42,354.45 814.42,356.60 814.96,356.60 814.96,358.75 819.83,358.75 819.83,360.90 820.90,360.90 820.90,363.05 822.50,363.05 822.50,365.20 824.60,365.20 824.60,367.35 824.96,367.35 824.96,369.50 830.24,369.50 830.24,371.65 831.13,371.65 831.13,373.80 844.46,373.80 844.46,375.95 851.60,375.95 851.60,378.10 856.09,378.10 856.09,380.25 857.25,380.25 857.25,382.40 861.85,382.40 861.85,384.55 865.31,384.55 865.31,386.70 874.99,386.70 874.99,388.85 894.92,388.85 894.92,391.07 895.74,391.07 895.74,393.30 916.02,393.30 916.02,395.52 922.51,395.52 922.51,397.74 956.36,397.74 956.36,400.09 962.13,400.09 962.13,402.49 985.39,402.49 985.39,405.05 1002.18,405.05 1002.18,407.72 1220.00,407.72"/>
<line x1="881.96" y1="382.85" x2="881.96" y2="394.85" stroke="#2ca02c" stroke-width="1.5"/>
<line x1="894.23" y1="382.85" x2="894.23" y2="394.85" stroke="#2ca02c" stroke-width="1.5"/>
<line x1="933.22" y1="391.74" x2="933.22" y2="403.74" stroke="#2ca02c" stroke-width="1.5"/>
<line x1="939.78" y1="391.74" x2="939.78" y2="403.74" stroke="#2ca02c" stroke-width="1.5"/>
<line x1="940.46" y1="391.74" x2="940.46" y2="403.74" stroke="#2ca02c" stroke-width="1.5"/>
<line x1="957.36" y1="394.09" x2="957.36" y2="406.09" stroke="#2ca02c" stroke-width="1.5"/>
<line x1="969.39" y1="396.49" x2="969.39" y2="408.49" stroke="#2ca02c" stroke-width="1.5"/>
<line x1="972.22" y1="396.49" x2="972.22" y2="408.49" stroke="#2ca02c" stroke-width="1.5"/>
<line x1="982.84" y1="396.49" x2="982.84" y2="408.49" stroke="#2ca02c" stroke-width="1.5"/>
<line x1="993.53" y1="399.05" x2="993.53" y2="411.05" stroke="#2ca02c" stroke-width="1.5"/>
<line x1="994.30" y1="399.05" x2="994.30" y2="411.05" stroke="#2ca02c" stroke-width="1.5"/>
<line x1="1019.37" y1="401.72" x2="1019.37" y2="413.72" stroke="#2ca02c" stroke-width="1.5"/>
<line x1="1040.49" y1="401.72" x2="1040.49" y2="413.72" stroke="#2ca02c" stroke-width="1.5"/>
<line x1="1059.13" y1="401.72" x2="1059.13" y2="413.72" stroke="#2ca02c" stroke-width="1.5"/>
<line x1="1059.43" y1="401.72" x2="1059.43" y2="413.72" stroke="#2ca02c" stroke-width="1.5"/>
<line x1="1065.55" y1="401.72" x2="1065.55" y2="413.72" stroke="#2ca02c" stroke-width="1.5"/>
<line x1="1065.72" y1="401.72" x2="1065.72" y2="413.72" stroke="#2ca02c" stroke-width="1.5"/>
<line x1="1075.09" y1="401.72" x2="1075.09" y2="413.72" stroke="#2ca02c" stroke-width="1.5"/>
<line x1="1075.13" y1="401.72" x2="1075.13" y2="413.72" stroke="#2ca02c" stroke-width="1.5"/>
<line x1="1075.14" y1="401.72" x2="1075.14" y2="413.72" stroke="#2ca02c" stroke-width="1.5"/>
<line x1="1075.16" y1="401.72" x2="1075.16" y2="413.72" stroke="#2ca02c" stroke-width="1.5"/>
<line x1="1075.19" y1="401.72" x2="1075.19" y2="413.72" stroke="#2ca02c" stroke-width="1.5"/>
<line x1="1075.24" y1="401.72" x2="1075.24" y2="413.72" stroke="#2ca02c" stroke-width="1.5"/>
<line x1="1089.15" y1="401.72" x2="1089.15" y2="413.72" stroke="#2ca02c" stroke-width="1.5"/>
<line x1="1092.30" y1="401.72" x2="1092.30" y2="413.72" stroke="#2ca02c" stroke-width="1.5"/>
<line x1="1092.32" y1="401.72" x2="1092.32" y2="413.72" stroke="#2ca02c" stroke-width="1.5"/>
<line x1="1092.32" y1="401.72" x2="1092.32" y2="413.72" stroke="#2ca02c" stroke-width="1.5"/>
<line x1="1092.32" y1="401.72" x2="1092.32" y2="413.72" stroke="#2ca02c" stroke-width="1.5"/>
<line x1="1092.34" y1="401.72" x2="1092.34" y2="413.72" stroke="#2ca02c" stroke-width="1.5"/>
<line x1="1092.38" y1="401.72" x2="1092.38" y2="413.72" stroke="#2ca02c" stroke-width="1.5"/>
<line x1="1092.40" y1="401.72" x2="1092.40" y2="413.72" stroke="#2ca02c" stroke-width="1.5"/>
<line x1="1092.47" y1="401.72" x2="1092.47" y2="413.72" stroke="#2ca02c" stroke-width="1.5"/>
<line x1="1098.66" y1="401.72" x2="1098.66" y2="413.72" stroke="#2ca02c" stroke-width="1.5"/>
<line x1="1098.67" y1="401.72" x2="1098.67" y2="413.72" stroke="#2ca02c" stroke-width="1.5"/>
<line x1="1098.67" y1="401.72" x2="1098.67" y2="413.72" stroke="#2ca02c" stroke-width="1.5"/>
<line x1="1098.69" y1="401.72" x2="1098.69" y2="413.72" stroke="#2ca02c" stroke-width="1.5"/>
<line x1="1098.70" y1="401.72" x2="1098.70" y2="413.72" stroke="#2ca02c" stroke-width="1.5"/>
<line x1="1098.71" y1="401.72" x2="1098.71" y2="413.72" stroke="#2ca02c" stroke-width="1.5"/>
<line x1="1098.72" y1="401.72" x2="1098.72" y2="413.72" stroke="#2ca02c" stroke-width="1.5"/>
<line x1="1098.76" y1="401.72" x2="1098.76" y2="413.72" stroke="#2ca02c" stroke-width="1.5"/>
<line x1="1098.87" y1="401.72" x2="1098.87" y2="413.72" stroke="#2ca02c" stroke-width="1.5"/>
<line x1="1098.87" y1="401.72" x2="1098.87" y2="413.72" stroke="#2ca02c" stroke-width="1.5"/>
<line x1="1098.89" y1="401.72" x2="1098.89" y2="413.72" stroke="#2ca02c" stroke-width="1.5"/>
<line x1="1098.90" y1="401.72" x2="1098.90" y2="413.72" stroke="#2ca02c" stroke-width="1.5"/>
<line x1="1098.94" y1="401.72" x2="1098.94" y2="413.72" stroke="#2ca02c" stroke-width="1.5"/>
<line x1="1098.94" y1="401.72" x2="1098.94" y2="413.72" stroke="#2ca02c" stroke-width="1.5"/>
<line x1="1098.96" y1="401.72" x2="1098.96" y2="413.72" stroke="#2ca02c" stroke-width="1.5"/>
<line x1="1099.33" y1="401.72" x2="1099.33" y2="413.72" stroke="#2ca02c" stroke-width="1.5"/>
<line x1="1099.66" y1="401.72" x2="1099.66" y2="413.72" stroke="#2ca02c" stroke-width="1.5"/>
<line x1="1099.75" y1="401.72" x2="1099.75" y2="413.72" stroke="#2ca02c" stroke-width="1.5"/>
<line x1="1099.76" y1="401.72" x2="1099.76" y2="413.72" stroke="#2ca02c" stroke-width="1.5"/>
<line x1="1099.79" y1="401.72" x2="1099.79" y2="413.72" stroke="#2ca02c" stroke-width="1.5"/>
<line x1="1107.38" y1="401.72" x2="1107.38" y2="413.72" stroke="#2ca02c" stroke-width="1.5"/>
<polyline fill="none" stroke="#9467bd" stroke-width="3" points="110.00,90.00 271.38,90.00 271.38,92.15 283.38,92.15 283.38,94.30 288.86,94.30 288.86,96.45 387.25,96.45 387.25,98.60 390.14,98.60 390.14,100.75 393.72,100.75 393.72,102.90 410.50,102.90 410.50,105.05 430.50,105.05 430.50,107.20 442.43,107.20 442.43,109.35 442.59,109.35 442.59,111.50 453.75,111.50 453.75,113.65 454.21,113.65 454.21,115.80 456.69,115.80 456.69,117.95 457.75,117.95 457.75,120.10 469.92,120.10 469.92,122.25 470.16,122.25 470.16,124.40 483.44,124.40 483.44,126.55 485.34,126.55 485.34,128.70 488.84,128.70 488.84,130.85 504.56,130.85 504.56,133.00 513.05,133.00 513.05,135.15 523.74,135.15 523.74,137.30 525.95,137.30 525.95,139.45 529.52,139.45 529.52,141.60 530.91,141.60 530.91,143.75 532.07,143.75 532.07,145.90 537.70,145.90 537.70,148.05 545.75,148.05 545.75,150.20 546.48,150.20 546.48,152.35 547.57,152.35 547.57,154.50 558.16,154.50 558.16,156.65 569.62,156.65 569.62,158.80 570.00,158.80 570.00,160.95 572.84,160.95 572.84,163.10 574.82,163.10 574.82,165.25 583.48,165.25 583.48,167.40 584.62,167.40 584.62,169.55 599.71,169.55 599.71,171.70 611.19,171.70 611.19,173.85 611.43,173.85 611.43,176.00 611.63,176.00 611.63,178.15 612.90,178.15 612.90,180.30 619.31,180.30 619.31,182.45 620.15,182.45 620.15,184.60 621.51,184.60 621.51,186.75 623.93,186.75 623.93,188.90 624.45,188.90 624.45,191.05 629.14,191.05 629.14,193.20 634.39,193.20 634.39,195.35 637.97,195.35 637.97,197.50 639.40,197.50 639.40,199.65 639.74,199.65 639.74,201.80 641.20,201.80 641.20,203.95 650.17,203.95 650.17,206.10 650.94,206.10 650.94,208.25 652.39,208.25 652.39,210.40 656.54,210.40 656.54,212.55 656.95,212.55 656.95,214.70 662.24,214.70 662.24,216.85 665.09,216.85 665.09,219.00 665.21,219.00 665.21,221.15 666.38,221.15 666.38,223.30 670.98,223.30 670.98,225.45 676.39,225.45 676.39,227.60 677.51,227.60 677.51,229.75 677.56,229.75 677.56,231.90 680.14,231.90 680.14,234.05 680.98,234.05 680.98,236.20 684.00,236.20 684.00,238.35 687.20,238.35 687.20,240.50 687.90,240.50 687.90,242.65 691.52,242.65 691.52,244.80 697.89,244.80 697.89,246.95 698.40,246.95 698.40,249.10 699.59,249.10 699.59,251.25 703.23,251.25 703.23,253.40 709.26,253.40 709.26,255.55 714.12,255.55 714.12,257.70 714.31,257.70 714.31,259.85 715.98,259.85 715.98,262.00 720.12,262.00 720.12,264.15 722.13,264.15 722.13,266.30 724.03,266.30 724.03,268.45 727.36,268.45 727.36,270.60 732.68,270.60 732.68,272.75 733.74,272.75 733.74,274.90 734.49,274.90 734.49,277.05 737.89,277.05 737.89,279.20 738.41,279.20 738.41,281.35 741.29,281.35 741.29,283.50 745.97,283.50 745.97,285.65 746.73,285.65 746.73,287.80 746.98,287.80 746.98,289.95 749.74,289.95 749.74,292.10 754.15,292.10 754.15,294.25 754.16,294.25 754.16,296.40 755.06,296.40 755.06,298.55 758.78,298.55 758.78,300.70 770.42,300.70 770.42,302.85 777.18,302.85 777.18,305.00 778.77,305.00 778.77,307.15 780.33,307.15 780.33,309.30 781.47,309.30 781.47,311.45 782.08,311.45 782.08,313.60 791.77,313.60 791.77,315.75 791.83,315.75 791.83,317.90 797.02,317.90 797.02,320.05 798.32,320.05 798.32,322.20 802.40,322.20 802.40,324.35 804.09,324.35 804.09,326.50 807.54,326.50 807.54,328.65 810.14,328.65 810.14,330.80 812.27,330.80 812.27,332.95 812.81,332.95 812.81,335.10 814.97,335.10 814.97,337.25 817.04,337.25 817.04,339.40 823.20,339.40 823.20,341.55 823.40,341.55 823.40,343.70 825.25,343.70 825.25,345.85 827.80,345.85 827.80,348.00 829.97,348.00 829.97,350.18 831.97,350.18 831.97,352.35 832.27,352.35 832.27,354.53 835.84,354.53 835.84,356.71 841.27,356.71 841.27,358.89 841.92,358.89 841.92,361.06 848.58,361.06 848.58,363.24 851.39,363.24 851.39,365.42 854.53,365.42 854.53,367.59 864.29,367.59 864.29,369.77 869.07,369.77 869.07,371.95 869.52,371.95 869.52,374.13 878.56,374.13 878.56,376.30 883.78,376.30 883.78,378.48 886.96,378.48 886.96,380.66 903.76,380.66 903.76,382.84 906.85,382.84 906.85,385.01 911.19,385.01 911.19,387.19 913.51,387.19 913.51,389.37 937.91,389.37 937.91,391.58 949.51,391.58 949.51,393.80 951.10,393.80 951.10,396.01 961.50,396.01 961.50,398.22 972.90,398.22 972.90,400.44 977.75,400.44 977.75,402.65 989.87,402.65 989.87,404.87 997.37,404.87 997.37,407.08 1014.25,407.08 1014.25,409.38 1023.39,409.38 1023.39,411.69 1036.99,411.69 1036.99,414.04 1038.44,414.04 1038.44,416.40 1045.04,416.40 1045.04,418.75 1052.59,418.75 1052.59,421.16 1053.81,421.16 1053.81,423.57 1220.00,423.57"/>
<line x1="828.71" y1="342.00" x2="828.71" y2="354.00" stroke="#9467bd" stroke-width="1.5"/>
<line x1="927.40" y1="383.37" x2="927.40" y2="395.37" stroke="#9467bd" stroke-width="1.5"/>
<line x1="998.10" y1="401.08" x2="998.10" y2="413.08" stroke="#9467bd" stroke-width="1.5"/>
<line x1="1000.39" y1="401.08" x2="1000.39" y2="413.08" stroke="#9467bd" stroke-width="1.5"/>
<line x1="1024.18" y1="405.69" x2="1024.18" y2="417.69" stroke="#9467bd" stroke-width="1.5"/>
<line x1="1049.62" y1="412.75" x2="1049.62" y2="424.75" stroke="#9467bd" stroke-width="1.5"/>
<line x1="1069.67" y1="417.57" x2="1069.67" y2="429.57" stroke="#9467bd" stroke-width="1.5"/>
<line x1="1073.36" y1="417.57" x2="1073.36" y2="429.57" stroke="#9467bd" stroke-width="1.5"/>
<line x1="1073.39" y1="417.57" x2="1073.39" y2="429.57" stroke="#9467bd" stroke-width="1.5"/>
<line x1="1082.82" y1="417.57" x2="1082.82" y2="429.57" stroke="#9467bd" stroke-width="1.5"/>
<line x1="1082.84" y1="417.57" x2="1082.84" y2="429.57" stroke="#9467bd" stroke-width="1.5"/>
<line x1="1082.90" y1="417.57" x2="1082.90" y2="429.57" stroke="#9467bd" stroke-width="1.5"/>
<line x1="1082.95" y1="417.57" x2="1082.95" y2="429.57" stroke="#9467bd" stroke-width="1.5"/>
<line x1="1082.98" y1="417.57" x2="1082.98" y2="429.57" stroke="#9467bd" stroke-width="1.5"/>
<line x1="1087.49" y1="417.57" x2="1087.49" y2="429.57" stroke="#9467bd" stroke-width="1.5"/>
<line x1="1089.48" y1="417.57" x2="1089.48" y2="429.57" stroke="#9467bd" stroke-width="1.5"/>
<line x1="1089.51" y1="417.57" x2="1089.51" y2="429.57" stroke="#9467bd" stroke-width="1.5"/>
<line x1="1091.71" y1="417.57" x2="1091.71" y2="429.57" stroke="#9467bd" stroke-width="1.5"/>
<line x1="1092.03" y1="417.57" x2="1092.03" y2="429.57" stroke="#9467bd" stroke-width="1.5"/>
<line x1="1092.37" y1="417.57" x2="1092.37" y2="429.57" stroke="#9467bd" stroke-width="1.5"/>
<line x1="1093.17" y1="417.57" x2="1093.17" y2="429.57" stroke="#9467bd" stroke-width="1.5"/>
<line x1="1093.47" y1="417.57" x2="1093.47" y2="429.57" stroke="#9467bd" stroke-width="1.5"/>
<line x1="1093.52" y1="417.57" x2="1093.52" y2="429.57" stroke="#9467bd" stroke-width="1.5"/>
<line x1="1096.47" y1="417.57" x2="1096.47" y2="429.57" stroke="#9467bd" stroke-width="1.5"/>
<line x1="1098.49" y1="417.57" x2="1098.49" y2="429.57" stroke="#9467bd" stroke-width="1.5"/>
<line x1="1098.50" y1="417.57" x2="1098.50" y2="429.57" stroke="#9467bd" stroke-width="1.5"/>
<line x1="1098.54" y1="417.57" x2="1098.54" y2="429.57" stroke="#9467bd" stroke-width="1.5"/>
<line x1="1098.56" y1="417.57" x2="1098.56" y2="429.57" stroke="#9467bd" stroke-width="1.5"/>
<line x1="1098.58" y1="417.57" x2="1098.58" y2="429.57" stroke="#9467bd" stroke-width="1.5"/>
<line x1="1098.63" y1="417.57" x2="1098.63" y2="429.57" stroke="#9467bd" stroke-width="1.5"/>
<line x1="1098.63" y1="417.57" x2="1098.63" y2="429.57" stroke="#9467bd" stroke-width="1.5"/>
<line x1="1098.65" y1="417.57" x2="1098.65" y2="429.57" stroke="#9467bd" stroke-width="1.5"/>
<line x1="1098.92" y1="417.57" x2="1098.92" y2="429.57" stroke="#9467bd" stroke-width="1.5"/>
<line x1="1098.94" y1="417.57" x2="1098.94" y2="429.57" stroke="#9467bd" stroke-width="1.5"/>
<line x1="1099.00" y1="417.57" x2="1099.00" y2="429.57" stroke="#9467bd" stroke-width="1.5"/>
<line x1="1099.00" y1="417.57" x2="1099.00" y2="429.57" stroke="#9467bd" stroke-width="1.5"/>
<line x1="1099.01" y1="417.57" x2="1099.01" y2="429.57" stroke="#9467bd" stroke-width="1.5"/>
<line x1="1099.22" y1="417.57" x2="1099.22" y2="429.57" stroke="#9467bd" stroke-width="1.5"/>
<line x1="1099.36" y1="417.57" x2="1099.36" y2="429.57" stroke="#9467bd" stroke-width="1.5"/>
<line x1="1099.45" y1="417.57" x2="1099.45" y2="429.57" stroke="#9467bd" stroke-width="1.5"/>
<line x1="1099.52" y1="417.57" x2="1099.52" y2="429.57" stroke="#9467bd" stroke-width="1.5"/>
<line x1="1101.26" y1="417.57" x2="1101.26" y2="429.57" stroke="#9467bd" stroke-width="1.5"/>
<line x1="1105.48" y1="417.57" x2="1105.48" y2="429.57" stroke="#9467bd" stroke-width="1.5"/>
<line x1="1107.38" y1="417.57" x2="1107.38" y2="429.57" stroke="#9467bd" stroke-width="1.5"/>
<line x1="1107.44" y1="417.57" x2="1107.44" y2="429.57" stroke="#9467bd" stroke-width="1.5"/>
<line x1="1107.46" y1="417.57" x2="1107.46" y2="429.57" stroke="#9467bd" stroke-width="1.5"/>
<rect x="1010" y="104" width="198" height="116" fill="white" stroke="#cccccc"/>
<text x="1020" y="122" font-size="12" font-weight="bold" fill="#333333">Group</text>
<line x1="1020" y1="138" x2="1038" y2="138" stroke="#1f77b4" stroke-width="3"/>
<text x="1046" y="142" font-size="12" fill="#333333">Q1_lowZr</text>
<line x1="1020" y1="160" x2="1038" y2="160" stroke="#d62728" stroke-width="3"/>
<text x="1046" y="164" font-size="12" fill="#333333">Q2_midlowZr</text>
<line x1="1020" y1="182" x2="1038" y2="182" stroke="#2ca02c" stroke-width="3"/>
<text x="1046" y="186" font-size="12" fill="#333333">Q3_midhighZr</text>
<line x1="1020" y1="204" x2="1038" y2="204" stroke="#9467bd" stroke-width="3"/>
<text x="1046" y="208" font-size="12" fill="#333333">Q4_highZr</text>
<text x="110" y="582" font-size="18" font-weight="bold" fill="#1f1f1f">Number at risk</text>
<text x="110" y="602" font-size="12" fill="#555555">Count of observations still at risk at each reference time.</text>
<text x="110" y="626" font-size="12" font-weight="bold" fill="#333333">Group</text>
<text x="395.00" y="626" text-anchor="middle" font-size="12" font-weight="bold" fill="#333333">0</text>
<text x="560.00" y="626" text-anchor="middle" font-size="12" font-weight="bold" fill="#333333">0</text>
<text x="725.00" y="626" text-anchor="middle" font-size="12" font-weight="bold" fill="#333333">1</text>
<text x="890.00" y="626" text-anchor="middle" font-size="12" font-weight="bold" fill="#333333">10</text>
<text x="1055.00" y="626" text-anchor="middle" font-size="12" font-weight="bold" fill="#333333">100</text>
<rect x="110" y="626" width="1110" height="34" fill="#f8f6ef"/>
<text x="110" y="642" font-size="12" fill="#1f77b4" font-weight="bold">Q1_lowZr</text>
<text x="395.00" y="642" text-anchor="middle" font-size="12" fill="#333333">200</text>
<text x="560.00" y="642" text-anchor="middle" font-size="12" fill="#333333">187</text>
<text x="725.00" y="642" text-anchor="middle" font-size="12" fill="#333333">158</text>
<text x="890.00" y="642" text-anchor="middle" font-size="12" fill="#333333">107</text>
<text x="1055.00" y="642" text-anchor="middle" font-size="12" fill="#333333">51</text>
<text x="110" y="676" font-size="12" fill="#d62728" font-weight="bold">Q2_midlowZr</text>
<text x="395.00" y="676" text-anchor="middle" font-size="12" fill="#333333">200</text>
<text x="560.00" y="676" text-anchor="middle" font-size="12" fill="#333333">189</text>
<text x="725.00" y="676" text-anchor="middle" font-size="12" fill="#333333">145</text>
<text x="890.00" y="676" text-anchor="middle" font-size="12" fill="#333333">79</text>
<text x="1055.00" y="676" text-anchor="middle" font-size="12" fill="#333333">48</text>
<rect x="110" y="694" width="1110" height="34" fill="#f8f6ef"/>
<text x="110" y="710" font-size="12" fill="#2ca02c" font-weight="bold">Q3_midhighZr</text>
<text x="395.00" y="710" text-anchor="middle" font-size="12" fill="#333333">199</text>
<text x="560.00" y="710" text-anchor="middle" font-size="12" fill="#333333">188</text>
<text x="725.00" y="710" text-anchor="middle" font-size="12" fill="#333333">147</text>
<text x="890.00" y="710" text-anchor="middle" font-size="12" fill="#333333">67</text>
<text x="1055.00" y="710" text-anchor="middle" font-size="12" fill="#333333">41</text>
<text x="110" y="744" font-size="12" fill="#9467bd" font-weight="bold">Q4_highZr</text>
<text x="395.00" y="744" text-anchor="middle" font-size="12" fill="#333333">197</text>
<text x="560.00" y="744" text-anchor="middle" font-size="12" fill="#333333">184</text>
<text x="725.00" y="744" text-anchor="middle" font-size="12" fill="#333333">141</text>
<text x="890.00" y="744" text-anchor="middle" font-size="12" fill="#333333">72</text>
<text x="1055.00" y="744" text-anchor="middle" font-size="12" fill="#333333">46</text>
</svg>