<svg xmlns="http://www.w3.org/2000/svg" width="920" height="620" viewBox="0 0 920 620">
<rect width="100%" height="100%" fill="white"/>
<text x="90" y="32" font-size="22" font-weight="bold" fill="#222222">Distorted/Prebound Time To 8 Entities</text>
<text x="90" y="52" font-size="12" fill="#222222">Repeated runs per Zr, stopping when 8 entities is reached or the large step cap is hit.</text>
<text x="90" y="54" font-size="15" font-weight="bold" fill="#222222">Mean Time To 8</text>
<line x1="90" y1="260.00" x2="430" y2="260.00" stroke="#d9d9d9" stroke-width="1"/>
<text x="80" y="264.00" text-anchor="end" font-size="11" fill="#222222">0.00</text>
<line x1="90" y1="212.50" x2="430" y2="212.50" stroke="#d9d9d9" stroke-width="1"/>
<text x="80" y="216.50" text-anchor="end" font-size="11" fill="#222222">282.06</text>
<line x1="90" y1="165.00" x2="430" y2="165.00" stroke="#d9d9d9" stroke-width="1"/>
<text x="80" y="169.00" text-anchor="end" font-size="11" fill="#222222">564.11</text>
<line x1="90" y1="117.50" x2="430" y2="117.50" stroke="#d9d9d9" stroke-width="1"/>
<text x="80" y="121.50" text-anchor="end" font-size="11" fill="#222222">846.17</text>
<line x1="90" y1="70.00" x2="430" y2="70.00" stroke="#d9d9d9" stroke-width="1"/>
<text x="80" y="74.00" text-anchor="end" font-size="11" fill="#222222">1128.22</text>
<line x1="90.00" y1="70" x2="90.00" y2="260" stroke="#d9d9d9" stroke-width="1"/>
<text x="90.00" y="278" text-anchor="middle" font-size="11" fill="#222222">24</text>
<line x1="158.00" y1="70" x2="158.00" y2="260" stroke="#d9d9d9" stroke-width="1"/>
<text x="158.00" y="278" text-anchor="middle" font-size="11" fill="#222222">32</text>
<line x1="226.00" y1="70" x2="226.00" y2="260" stroke="#d9d9d9" stroke-width="1"/>
<text x="226.00" y="278" text-anchor="middle" font-size="11" fill="#222222">40</text>
<line x1="294.00" y1="70" x2="294.00" y2="260" stroke="#d9d9d9" stroke-width="1"/>
<text x="294.00" y="278" text-anchor="middle" font-size="11" fill="#222222">48</text>
<line x1="430.00" y1="70" x2="430.00" y2="260" stroke="#d9d9d9" stroke-width="1"/>
<text x="430.00" y="278" text-anchor="middle" font-size="11" fill="#222222">64</text>
<line x1="90" y1="260" x2="430" y2="260" stroke="#333333" stroke-width="1.3"/>
<line x1="90" y1="70" x2="90" y2="260" stroke="#333333" stroke-width="1.3"/>
<text x="260.00" y="300" text-anchor="middle" font-size="12" fill="#222222">Total Zr concentration (mM)</text>
<text x="38" y="165.00" transform="rotate(-90 38 165.00)" text-anchor="middle" font-size="12" fill="#222222">Time to 8 (s)</text>
<circle cx="90.00" cy="246.70" r="4.5" fill="#d95f02"/>
<circle cx="158.00" cy="241.95" r="4.5" fill="#d95f02"/>
<circle cx="226.00" cy="223.82" r="4.5" fill="#d95f02"/>
<circle cx="294.00" cy="156.09" r="4.5" fill="#d95f02"/>
<circle cx="430.00" cy="73.37" r="4.5" fill="#d95f02"/>
<polyline fill="none" stroke="#d95f02" stroke-width="2.5" points="90.00,246.70 158.00,241.95 226.00,223.82 294.00,156.09 430.00,73.37"/>
<text x="520" y="54" font-size="15" font-weight="bold" fill="#222222">Reach Fraction To 8</text>
<line x1="520" y1="260.00" x2="860" y2="260.00" stroke="#d9d9d9" stroke-width="1"/>
<text x="510" y="264.00" text-anchor="end" font-size="11" fill="#222222">0.00</text>
<line x1="520" y1="212.50" x2="860" y2="212.50" stroke="#d9d9d9" stroke-width="1"/>
<text x="510" y="216.50" text-anchor="end" font-size="11" fill="#222222">0.25</text>
<line x1="520" y1="165.00" x2="860" y2="165.00" stroke="#d9d9d9" stroke-width="1"/>
<text x="510" y="169.00" text-anchor="end" font-size="11" fill="#222222">0.50</text>
<line x1="520" y1="117.50" x2="860" y2="117.50" stroke="#d9d9d9" stroke-width="1"/>
<text x="510" y="121.50" text-anchor="end" font-size="11" fill="#222222">0.75</text>
<line x1="520" y1="70.00" x2="860" y2="70.00" stroke="#d9d9d9" stroke-width="1"/>
<text x="510" y="74.00" text-anchor="end" font-size="11" fill="#222222">1.00</text>
<line x1="520.00" y1="70" x2="520.00" y2="260" stroke="#d9d9d9" stroke-width="1"/>
<text x="520.00" y="278" text-anchor="middle" font-size="11" fill="#222222">24</text>
<line x1="588.00" y1="70" x2="588.00" y2="260" stroke="#d9d9d9" stroke-width="1"/>
<text x="588.00" y="278" text-anchor="middle" font-size="11" fill="#222222">32</text>
<line x1="656.00" y1="70" x2="656.00" y2="260" stroke="#d9d9d9" stroke-width="1"/>
<text x="656.00" y="278" text-anchor="middle" font-size="11" fill="#222222">40</text>
<line x1="724.00" y1="70" x2="724.00" y2="260" stroke="#d9d9d9" stroke-width="1"/>
<text x="724.00" y="278" text-anchor="middle" font-size="11" fill="#222222">48</text>
<line x1="860.00" y1="70" x2="860.00" y2="260" stroke="#d9d9d9" stroke-width="1"/>
<text x="860.00" y="278" text-anchor="middle" font-size="11" fill="#222222">64</text>
<line x1="520" y1="260" x2="860" y2="260" stroke="#333333" stroke-width="1.3"/>
<line x1="520" y1="70" x2="520" y2="260" stroke="#333333" stroke-width="1.3"/>
<text x="690.00" y="300" text-anchor="middle" font-size="12" fill="#222222">Total Zr concentration (mM)</text>
<text x="468" y="165.00" transform="rotate(-90 468 165.00)" text-anchor="middle" font-size="12" fill="#222222">Reach fraction</text>
<circle cx="520.00" cy="70.00" r="4.5" fill="#d95f02"/>
<circle cx="588.00" cy="70.00" r="4.5" fill="#d95f02"/>
<circle cx="656.00" cy="70.00" r="4.5" fill="#d95f02"/>
<circle cx="724.00" cy="70.00" r="4.5" fill="#d95f02"/>
<circle cx="860.00" cy="70.00" r="4.5" fill="#d95f02"/>
<polyline fill="none" stroke="#d95f02" stroke-width="2.5" points="520.00,70.00 588.00,70.00 656.00,70.00 724.00,70.00 860.00,70.00"/>
<text x="90" y="334" font-size="15" font-weight="bold" fill="#222222">Mean Final Entities</text>
<line x1="90" y1="540.00" x2="430" y2="540.00" stroke="#d9d9d9" stroke-width="1"/>
<text x="80" y="544.00" text-anchor="end" font-size="11" fill="#222222">0.00</text>
<line x1="90" y1="492.50" x2="430" y2="492.50" stroke="#d9d9d9" stroke-width="1"/>
<text x="80" y="496.50" text-anchor="end" font-size="11" fill="#222222">2.29</text>
<line x1="90" y1="445.00" x2="430" y2="445.00" stroke="#d9d9d9" stroke-width="1"/>
<text x="80" y="449.00" text-anchor="end" font-size="11" fill="#222222">4.58</text>
<line x1="90" y1="397.50" x2="430" y2="397.50" stroke="#d9d9d9" stroke-width="1"/>
<text x="80" y="401.50" text-anchor="end" font-size="11" fill="#222222">6.88</text>
<line x1="90" y1="350.00" x2="430" y2="350.00" stroke="#d9d9d9" stroke-width="1"/>
<text x="80" y="354.00" text-anchor="end" font-size="11" fill="#222222">9.17</text>
<line x1="90.00" y1="350" x2="90.00" y2="540" stroke="#d9d9d9" stroke-width="1"/>
<text x="90.00" y="558" text-anchor="middle" font-size="11" fill="#222222">24</text>
<line x1="158.00" y1="350" x2="158.00" y2="540" stroke="#d9d9d9" stroke-width="1"/>
<text x="158.00" y="558" text-anchor="middle" font-size="11" fill="#222222">32</text>
<line x1="226.00" y1="350" x2="226.00" y2="540" stroke="#d9d9d9" stroke-width="1"/>
<text x="226.00" y="558" text-anchor="middle" font-size="11" fill="#222222">40</text>
<line x1="294.00" y1="350" x2="294.00" y2="540" stroke="#d9d9d9" stroke-width="1"/>
<text x="294.00" y="558" text-anchor="middle" font-size="11" fill="#222222">48</text>
<line x1="430.00" y1="350" x2="430.00" y2="540" stroke="#d9d9d9" stroke-width="1"/>
<text x="430.00" y="558" text-anchor="middle" font-size="11" fill="#222222">64</text>
<line x1="90" y1="540" x2="430" y2="540" stroke="#333333" stroke-width="1.3"/>
<line x1="90" y1="350" x2="90" y2="540" stroke="#333333" stroke-width="1.3"/>
<text x="260.00" y="580" text-anchor="middle" font-size="12" fill="#222222">Total Zr concentration (mM)</text>
<text x="38" y="445.00" transform="rotate(-90 38 445.00)" text-anchor="middle" font-size="12" fill="#222222">Final entities</text>
<circle cx="90.00" cy="374.18" r="4.5" fill="#d95f02"/>
<circle cx="158.00" cy="370.73" r="4.5" fill="#d95f02"/>
<circle cx="226.00" cy="370.73" r="4.5" fill="#d95f02"/>
<circle cx="294.00" cy="372.45" r="4.5" fill="#d95f02"/>
<circle cx="430.00" cy="371.59" r="4.5" fill="#d95f02"/>
<polyline fill="none" stroke="#d95f02" stroke-width="2.5" points="90.00,374.18 158.00,370.73 226.00,370.73 294.00,372.45 430.00,371.59"/>
<text x="520" y="334" font-size="15" font-weight="bold" fill="#222222">Mean Prebound Fraction</text>
<line x1="520" y1="540.00" x2="860" y2="540.00" stroke="#d9d9d9" stroke-width="1"/>
<text x="510" y="544.00" text-anchor="end" font-size="11" fill="#222222">0.00</text>
<line x1="520" y1="492.50" x2="860" y2="492.50" stroke="#d9d9d9" stroke-width="1"/>
<text x="510" y="496.50" text-anchor="end" font-size="11" fill="#222222">0.14</text>
<line x1="520" y1="445.00" x2="860" y2="445.00" stroke="#d9d9d9" stroke-width="1"/>
<text x="510" y="449.00" text-anchor="end" font-size="11" fill="#222222">0.29</text>
<line x1="520" y1="397.50" x2="860" y2="397.50" stroke="#d9d9d9" stroke-width="1"/>
<text x="510" y="401.50" text-anchor="end" font-size="11" fill="#222222">0.43</text>
<line x1="520" y1="350.00" x2="860" y2="350.00" stroke="#d9d9d9" stroke-width="1"/>
<text x="510" y="354.00" text-anchor="end" font-size="11" fill="#222222">0.58</text>
<line x1="520.00" y1="350" x2="520.00" y2="540" stroke="#d9d9d9" stroke-width="1"/>
<text x="520.00" y="558" text-anchor="middle" font-size="11" fill="#222222">24</text>
<line x1="588.00" y1="350" x2="588.00" y2="540" stroke="#d9d9d9" stroke-width="1"/>
<text x="588.00" y="558" text-anchor="middle" font-size="11" fill="#222222">32</text>
<line x1="656.00" y1="350" x2="656.00" y2="540" stroke="#d9d9d9" stroke-width="1"/>
<text x="656.00" y="558" text-anchor="middle" font-size="11" fill="#222222">40</text>
<line x1="724.00" y1="350" x2="724.00" y2="540" stroke="#d9d9d9" stroke-width="1"/>
<text x="724.00" y="558" text-anchor="middle" font-size="11" fill="#222222">48</text>
<line x1="860.00" y1="350" x2="860.00" y2="540" stroke="#d9d9d9" stroke-width="1"/>
<text x="860.00" y="558" text-anchor="middle" font-size="11" fill="#222222">64</text>
<line x1="520" y1="540" x2="860" y2="540" stroke="#333333" stroke-width="1.3"/>
<line x1="520" y1="350" x2="520" y2="540" stroke="#333333" stroke-width="1.3"/>
<text x="690.00" y="580" text-anchor="middle" font-size="12" fill="#222222">Total Zr concentration (mM)</text>
<text x="468" y="445.00" transform="rotate(-90 468 445.00)" text-anchor="middle" font-size="12" fill="#222222">Prebound fraction</text>
<circle cx="520.00" cy="434.69" r="4.5" fill="#2a9d8f"/>
<circle cx="588.00" cy="413.03" r="4.5" fill="#2a9d8f"/>
<circle cx="656.00" cy="395.17" r="4.5" fill="#2a9d8f"/>
<circle cx="724.00" cy="380.21" r="4.5" fill="#2a9d8f"/>
<circle cx="860.00" cy="356.56" r="4.5" fill="#2a9d8f"/>
<polyline fill="none" stroke="#2a9d8f" stroke-width="2.5" points="520.00,434.69 588.00,413.03 656.00,395.17 724.00,380.21 860.00,356.56"/>
</svg>