<svg xmlns="http://www.w3.org/2000/svg" width="920" height="620" viewBox="0 0 920 620">
<rect width="100%" height="100%" fill="white"/>
<text x="90" y="32" font-size="22" font-weight="bold" fill="#222222">Distorted/Prebound Time To 100 Entities</text>
<text x="90" y="52" font-size="12" fill="#222222">Repeated runs per Zr, stopping when 100 entities is reached or the large step cap is hit.</text>
<text x="90" y="54" font-size="15" font-weight="bold" fill="#222222">Mean Time To 100</text>
<line x1="90" y1="260.00" x2="430" y2="260.00" stroke="#d9d9d9" stroke-width="1"/>
<text x="80" y="264.00" text-anchor="end" font-size="11" fill="#222222">0.00</text>
<line x1="90" y1="212.50" x2="430" y2="212.50" stroke="#d9d9d9" stroke-width="1"/>
<text x="80" y="216.50" text-anchor="end" font-size="11" fill="#222222">85.44</text>
<line x1="90" y1="165.00" x2="430" y2="165.00" stroke="#d9d9d9" stroke-width="1"/>
<text x="80" y="169.00" text-anchor="end" font-size="11" fill="#222222">170.87</text>
<line x1="90" y1="117.50" x2="430" y2="117.50" stroke="#d9d9d9" stroke-width="1"/>
<text x="80" y="121.50" text-anchor="end" font-size="11" fill="#222222">256.31</text>
<line x1="90" y1="70.00" x2="430" y2="70.00" stroke="#d9d9d9" stroke-width="1"/>
<text x="80" y="74.00" text-anchor="end" font-size="11" fill="#222222">341.74</text>
<line x1="90.00" y1="70" x2="90.00" y2="260" stroke="#d9d9d9" stroke-width="1"/>
<text x="90.00" y="278" text-anchor="middle" font-size="11" fill="#222222">0.1</text>
<line x1="102.80" y1="70" x2="102.80" y2="260" stroke="#d9d9d9" stroke-width="1"/>
<text x="102.80" y="278" text-anchor="middle" font-size="11" fill="#222222">1</text>
<line x1="173.93" y1="70" x2="173.93" y2="260" stroke="#d9d9d9" stroke-width="1"/>
<text x="173.93" y="278" text-anchor="middle" font-size="11" fill="#222222">6</text>
<line x1="430.00" y1="70" x2="430.00" y2="260" stroke="#d9d9d9" stroke-width="1"/>
<text x="430.00" y="278" text-anchor="middle" font-size="11" fill="#222222">24</text>
<line x1="90" y1="260" x2="430" y2="260" stroke="#333333" stroke-width="1.3"/>
<line x1="90" y1="70" x2="90" y2="260" stroke="#333333" stroke-width="1.3"/>
<text x="260.00" y="300" text-anchor="middle" font-size="12" fill="#222222">Total Zr concentration (mM)</text>
<text x="38" y="165.00" transform="rotate(-90 38 165.00)" text-anchor="middle" font-size="12" fill="#222222">Time to 100 (s)</text>
<circle cx="90.00" cy="100.14" r="4.5" fill="#d95f02"/>
<circle cx="102.80" cy="257.29" r="4.5" fill="#d95f02"/>
<circle cx="173.93" cy="259.82" r="4.5" fill="#d95f02"/>
<circle cx="430.00" cy="259.97" r="4.5" fill="#d95f02"/>
<polyline fill="none" stroke="#d95f02" stroke-width="2.5" points="90.00,100.14 102.80,257.29 173.93,259.82 430.00,259.97"/>
<text x="520" y="54" font-size="15" font-weight="bold" fill="#222222">Reach Fraction To 100</text>
<line x1="520" y1="260.00" x2="860" y2="260.00" stroke="#d9d9d9" stroke-width="1"/>
<text x="510" y="264.00" text-anchor="end" font-size="11" fill="#222222">0.00</text>
<line x1="520" y1="212.50" x2="860" y2="212.50" stroke="#d9d9d9" stroke-width="1"/>
<text x="510" y="216.50" text-anchor="end" font-size="11" fill="#222222">0.25</text>
<line x1="520" y1="165.00" x2="860" y2="165.00" stroke="#d9d9d9" stroke-width="1"/>
<text x="510" y="169.00" text-anchor="end" font-size="11" fill="#222222">0.50</text>
<line x1="520" y1="117.50" x2="860" y2="117.50" stroke="#d9d9d9" stroke-width="1"/>
<text x="510" y="121.50" text-anchor="end" font-size="11" fill="#222222">0.75</text>
<line x1="520" y1="70.00" x2="860" y2="70.00" stroke="#d9d9d9" stroke-width="1"/>
<text x="510" y="74.00" text-anchor="end" font-size="11" fill="#222222">1.00</text>
<line x1="520.00" y1="70" x2="520.00" y2="260" stroke="#d9d9d9" stroke-width="1"/>
<text x="520.00" y="278" text-anchor="middle" font-size="11" fill="#222222">0.1</text>
<line x1="532.80" y1="70" x2="532.80" y2="260" stroke="#d9d9d9" stroke-width="1"/>
<text x="532.80" y="278" text-anchor="middle" font-size="11" fill="#222222">1</text>
<line x1="603.93" y1="70" x2="603.93" y2="260" stroke="#d9d9d9" stroke-width="1"/>
<text x="603.93" y="278" text-anchor="middle" font-size="11" fill="#222222">6</text>
<line x1="860.00" y1="70" x2="860.00" y2="260" stroke="#d9d9d9" stroke-width="1"/>
<text x="860.00" y="278" text-anchor="middle" font-size="11" fill="#222222">24</text>
<line x1="520" y1="260" x2="860" y2="260" stroke="#333333" stroke-width="1.3"/>
<line x1="520" y1="70" x2="520" y2="260" stroke="#333333" stroke-width="1.3"/>
<text x="690.00" y="300" text-anchor="middle" font-size="12" fill="#222222">Total Zr concentration (mM)</text>
<text x="468" y="165.00" transform="rotate(-90 468 165.00)" text-anchor="middle" font-size="12" fill="#222222">Reach fraction</text>
<circle cx="520.00" cy="70.00" r="4.5" fill="#d95f02"/>
<circle cx="532.80" cy="70.00" r="4.5" fill="#d95f02"/>
<circle cx="603.93" cy="70.00" r="4.5" fill="#d95f02"/>
<circle cx="860.00" cy="70.00" r="4.5" fill="#d95f02"/>
<polyline fill="none" stroke="#d95f02" stroke-width="2.5" points="520.00,70.00 532.80,70.00 603.93,70.00 860.00,70.00"/>
<text x="90" y="334" font-size="15" font-weight="bold" fill="#222222">Mean Final Entities</text>
<line x1="90" y1="540.00" x2="430" y2="540.00" stroke="#d9d9d9" stroke-width="1"/>
<text x="80" y="544.00" text-anchor="end" font-size="11" fill="#222222">0.00</text>
<line x1="90" y1="492.50" x2="430" y2="492.50" stroke="#d9d9d9" stroke-width="1"/>
<text x="80" y="496.50" text-anchor="end" font-size="11" fill="#222222">25.25</text>
<line x1="90" y1="445.00" x2="430" y2="445.00" stroke="#d9d9d9" stroke-width="1"/>
<text x="80" y="449.00" text-anchor="end" font-size="11" fill="#222222">50.50</text>
<line x1="90" y1="397.50" x2="430" y2="397.50" stroke="#d9d9d9" stroke-width="1"/>
<text x="80" y="401.50" text-anchor="end" font-size="11" fill="#222222">75.75</text>
<line x1="90" y1="350.00" x2="430" y2="350.00" stroke="#d9d9d9" stroke-width="1"/>
<text x="80" y="354.00" text-anchor="end" font-size="11" fill="#222222">101.00</text>
<line x1="90.00" y1="350" x2="90.00" y2="540" stroke="#d9d9d9" stroke-width="1"/>
<text x="90.00" y="558" text-anchor="middle" font-size="11" fill="#222222">0.1</text>
<line x1="102.80" y1="350" x2="102.80" y2="540" stroke="#d9d9d9" stroke-width="1"/>
<text x="102.80" y="558" text-anchor="middle" font-size="11" fill="#222222">1</text>
<line x1="173.93" y1="350" x2="173.93" y2="540" stroke="#d9d9d9" stroke-width="1"/>
<text x="173.93" y="558" text-anchor="middle" font-size="11" fill="#222222">6</text>
<line x1="430.00" y1="350" x2="430.00" y2="540" stroke="#d9d9d9" stroke-width="1"/>
<text x="430.00" y="558" text-anchor="middle" font-size="11" fill="#222222">24</text>
<line x1="90" y1="540" x2="430" y2="540" stroke="#333333" stroke-width="1.3"/>
<line x1="90" y1="350" x2="90" y2="540" stroke="#333333" stroke-width="1.3"/>
<text x="260.00" y="580" text-anchor="middle" font-size="12" fill="#222222">Total Zr concentration (mM)</text>
<text x="38" y="445.00" transform="rotate(-90 38 445.00)" text-anchor="middle" font-size="12" fill="#222222">Final entities</text>
<circle cx="90.00" cy="351.88" r="4.5" fill="#d95f02"/>
<circle cx="102.80" cy="351.88" r="4.5" fill="#d95f02"/>
<circle cx="173.93" cy="351.88" r="4.5" fill="#d95f02"/>
<circle cx="430.00" cy="351.88" r="4.5" fill="#d95f02"/>
<polyline fill="none" stroke="#d95f02" stroke-width="2.5" points="90.00,351.88 102.80,351.88 173.93,351.88 430.00,351.88"/>
<text x="520" y="334" font-size="15" font-weight="bold" fill="#222222">Mean Prebound Fraction</text>
<line x1="520" y1="540.00" x2="860" y2="540.00" stroke="#d9d9d9" stroke-width="1"/>
<text x="510" y="544.00" text-anchor="end" font-size="11" fill="#222222">0.00</text>
<line x1="520" y1="492.50" x2="860" y2="492.50" stroke="#d9d9d9" stroke-width="1"/>
<text x="510" y="496.50" text-anchor="end" font-size="11" fill="#222222">0.02</text>
<line x1="520" y1="445.00" x2="860" y2="445.00" stroke="#d9d9d9" stroke-width="1"/>
<text x="510" y="449.00" text-anchor="end" font-size="11" fill="#222222">0.03</text>
<line x1="520" y1="397.50" x2="860" y2="397.50" stroke="#d9d9d9" stroke-width="1"/>
<text x="510" y="401.50" text-anchor="end" font-size="11" fill="#222222">0.05</text>
<line x1="520" y1="350.00" x2="860" y2="350.00" stroke="#d9d9d9" stroke-width="1"/>
<text x="510" y="354.00" text-anchor="end" font-size="11" fill="#222222">0.06</text>
<line x1="520.00" y1="350" x2="520.00" y2="540" stroke="#d9d9d9" stroke-width="1"/>
<text x="520.00" y="558" text-anchor="middle" font-size="11" fill="#222222">0.1</text>
<line x1="532.80" y1="350" x2="532.80" y2="540" stroke="#d9d9d9" stroke-width="1"/>
<text x="532.80" y="558" text-anchor="middle" font-size="11" fill="#222222">1</text>
<line x1="603.93" y1="350" x2="603.93" y2="540" stroke="#d9d9d9" stroke-width="1"/>
<text x="603.93" y="558" text-anchor="middle" font-size="11" fill="#222222">6</text>
<line x1="860.00" y1="350" x2="860.00" y2="540" stroke="#d9d9d9" stroke-width="1"/>
<text x="860.00" y="558" text-anchor="middle" font-size="11" fill="#222222">24</text>
<line x1="520" y1="540" x2="860" y2="540" stroke="#333333" stroke-width="1.3"/>
<line x1="520" y1="350" x2="520" y2="540" stroke="#333333" stroke-width="1.3"/>
<text x="690.00" y="580" text-anchor="middle" font-size="12" fill="#222222">Total Zr concentration (mM)</text>
<text x="468" y="445.00" transform="rotate(-90 468 445.00)" text-anchor="middle" font-size="12" fill="#222222">Prebound fraction</text>
<circle cx="520.00" cy="539.45" r="4.5" fill="#2a9d8f"/>
<circle cx="532.80" cy="534.50" r="4.5" fill="#2a9d8f"/>
<circle cx="603.93" cy="507.29" r="4.5" fill="#2a9d8f"/>
<circle cx="860.00" cy="413.05" r="4.5" fill="#2a9d8f"/>
<polyline fill="none" stroke="#2a9d8f" stroke-width="2.5" points="520.00,539.45 532.80,534.50 603.93,507.29 860.00,413.05"/>
</svg>