<svg xmlns="http://www.w3.org/2000/svg" width="920" height="620" viewBox="0 0 920 620">
<rect width="100%" height="100%" fill="white"/>
<text x="90" y="32" font-size="22" font-weight="bold" fill="#222222">Distorted/Prebound Time To 100 Entities</text>
<text x="90" y="52" font-size="12" fill="#222222">Repeated runs per Zr, stopping when 100 entities is reached or the large step cap is hit.</text>
<text x="90" y="54" font-size="15" font-weight="bold" fill="#222222">Mean Time To 100</text>
<line x1="90" y1="260.00" x2="430" y2="260.00" stroke="#d9d9d9" stroke-width="1"/>
<text x="80" y="264.00" text-anchor="end" font-size="11" fill="#222222">0.00</text>
<line x1="90" y1="212.50" x2="430" y2="212.50" stroke="#d9d9d9" stroke-width="1"/>
<text x="80" y="216.50" text-anchor="end" font-size="11" fill="#222222">115.84</text>
<line x1="90" y1="165.00" x2="430" y2="165.00" stroke="#d9d9d9" stroke-width="1"/>
<text x="80" y="169.00" text-anchor="end" font-size="11" fill="#222222">231.68</text>
<line x1="90" y1="117.50" x2="430" y2="117.50" stroke="#d9d9d9" stroke-width="1"/>
<text x="80" y="121.50" text-anchor="end" font-size="11" fill="#222222">347.51</text>
<line x1="90" y1="70.00" x2="430" y2="70.00" stroke="#d9d9d9" stroke-width="1"/>
<text x="80" y="74.00" text-anchor="end" font-size="11" fill="#222222">463.35</text>
<line x1="90.00" y1="70" x2="90.00" y2="260" stroke="#d9d9d9" stroke-width="1"/>
<text x="90.00" y="278" text-anchor="middle" font-size="11" fill="#222222">3.38305</text>
<line x1="120.91" y1="70" x2="120.91" y2="260" stroke="#d9d9d9" stroke-width="1"/>
<text x="120.91" y="278" text-anchor="middle" font-size="11" fill="#222222">22.7587</text>
<line x1="151.82" y1="70" x2="151.82" y2="260" stroke="#d9d9d9" stroke-width="1"/>
<text x="151.82" y="278" text-anchor="middle" font-size="11" fill="#222222">42.1344</text>
<line x1="182.73" y1="70" x2="182.73" y2="260" stroke="#d9d9d9" stroke-width="1"/>
<text x="182.73" y="278" text-anchor="middle" font-size="11" fill="#222222">61.51</text>
<line x1="213.64" y1="70" x2="213.64" y2="260" stroke="#d9d9d9" stroke-width="1"/>
<text x="213.64" y="278" text-anchor="middle" font-size="11" fill="#222222">80.8857</text>
<line x1="244.55" y1="70" x2="244.55" y2="260" stroke="#d9d9d9" stroke-width="1"/>
<text x="244.55" y="278" text-anchor="middle" font-size="11" fill="#222222">100.261</text>
<line x1="275.45" y1="70" x2="275.45" y2="260" stroke="#d9d9d9" stroke-width="1"/>
<text x="275.45" y="278" text-anchor="middle" font-size="11" fill="#222222">119.637</text>
<line x1="306.36" y1="70" x2="306.36" y2="260" stroke="#d9d9d9" stroke-width="1"/>
<text x="306.36" y="278" text-anchor="middle" font-size="11" fill="#222222">139.013</text>
<line x1="337.27" y1="70" x2="337.27" y2="260" stroke="#d9d9d9" stroke-width="1"/>
<text x="337.27" y="278" text-anchor="middle" font-size="11" fill="#222222">158.388</text>
<line x1="368.18" y1="70" x2="368.18" y2="260" stroke="#d9d9d9" stroke-width="1"/>
<text x="368.18" y="278" text-anchor="middle" font-size="11" fill="#222222">177.764</text>
<line x1="399.09" y1="70" x2="399.09" y2="260" stroke="#d9d9d9" stroke-width="1"/>
<text x="399.09" y="278" text-anchor="middle" font-size="11" fill="#222222">197.14</text>
<line x1="430.00" y1="70" x2="430.00" y2="260" stroke="#d9d9d9" stroke-width="1"/>
<text x="430.00" y="278" text-anchor="middle" font-size="11" fill="#222222">216.515</text>
<line x1="90" y1="260" x2="430" y2="260" stroke="#333333" stroke-width="1.3"/>
<line x1="90" y1="70" x2="90" y2="260" stroke="#333333" stroke-width="1.3"/>
<text x="260.00" y="300" text-anchor="middle" font-size="12" fill="#222222">Total Zr concentration (mM)</text>
<text x="38" y="165.00" transform="rotate(-90 38 165.00)" text-anchor="middle" font-size="12" fill="#222222">Time to 100 (s)</text>
<circle cx="90.00" cy="172.70" r="4.5" fill="#d95f02"/>
<circle cx="120.91" cy="153.18" r="4.5" fill="#d95f02"/>
<circle cx="151.82" cy="154.54" r="4.5" fill="#d95f02"/>
<circle cx="182.73" cy="153.43" r="4.5" fill="#d95f02"/>
<circle cx="213.64" cy="125.56" r="4.5" fill="#d95f02"/>
<circle cx="244.55" cy="148.01" r="4.5" fill="#d95f02"/>
<circle cx="275.45" cy="155.73" r="4.5" fill="#d95f02"/>
<circle cx="306.36" cy="113.03" r="4.5" fill="#d95f02"/>
<circle cx="337.27" cy="130.04" r="4.5" fill="#d95f02"/>
<circle cx="368.18" cy="95.34" r="4.5" fill="#d95f02"/>
<circle cx="399.09" cy="78.20" r="4.5" fill="#d95f02"/>
<circle cx="430.00" cy="98.14" r="4.5" fill="#d95f02"/>
<polyline fill="none" stroke="#d95f02" stroke-width="2.5" points="90.00,172.70 120.91,153.18 151.82,154.54 182.73,153.43 213.64,125.56 244.55,148.01 275.45,155.73 306.36,113.03 337.27,130.04 368.18,95.34 399.09,78.20 430.00,98.14"/>
<text x="520" y="54" font-size="15" font-weight="bold" fill="#222222">Reach Fraction To 100</text>
<line x1="520" y1="260.00" x2="860" y2="260.00" stroke="#d9d9d9" stroke-width="1"/>
<text x="510" y="264.00" text-anchor="end" font-size="11" fill="#222222">0.00</text>
<line x1="520" y1="212.50" x2="860" y2="212.50" stroke="#d9d9d9" stroke-width="1"/>
<text x="510" y="216.50" text-anchor="end" font-size="11" fill="#222222">0.25</text>
<line x1="520" y1="165.00" x2="860" y2="165.00" stroke="#d9d9d9" stroke-width="1"/>
<text x="510" y="169.00" text-anchor="end" font-size="11" fill="#222222">0.50</text>
<line x1="520" y1="117.50" x2="860" y2="117.50" stroke="#d9d9d9" stroke-width="1"/>
<text x="510" y="121.50" text-anchor="end" font-size="11" fill="#222222">0.75</text>
<line x1="520" y1="70.00" x2="860" y2="70.00" stroke="#d9d9d9" stroke-width="1"/>
<text x="510" y="74.00" text-anchor="end" font-size="11" fill="#222222">1.00</text>
<line x1="520.00" y1="70" x2="520.00" y2="260" stroke="#d9d9d9" stroke-width="1"/>
<text x="520.00" y="278" text-anchor="middle" font-size="11" fill="#222222">3.38305</text>
<line x1="550.91" y1="70" x2="550.91" y2="260" stroke="#d9d9d9" stroke-width="1"/>
<text x="550.91" y="278" text-anchor="middle" font-size="11" fill="#222222">22.7587</text>
<line x1="581.82" y1="70" x2="581.82" y2="260" stroke="#d9d9d9" stroke-width="1"/>
<text x="581.82" y="278" text-anchor="middle" font-size="11" fill="#222222">42.1344</text>
<line x1="612.73" y1="70" x2="612.73" y2="260" stroke="#d9d9d9" stroke-width="1"/>
<text x="612.73" y="278" text-anchor="middle" font-size="11" fill="#222222">61.51</text>
<line x1="643.64" y1="70" x2="643.64" y2="260" stroke="#d9d9d9" stroke-width="1"/>
<text x="643.64" y="278" text-anchor="middle" font-size="11" fill="#222222">80.8857</text>
<line x1="674.55" y1="70" x2="674.55" y2="260" stroke="#d9d9d9" stroke-width="1"/>
<text x="674.55" y="278" text-anchor="middle" font-size="11" fill="#222222">100.261</text>
<line x1="705.45" y1="70" x2="705.45" y2="260" stroke="#d9d9d9" stroke-width="1"/>
<text x="705.45" y="278" text-anchor="middle" font-size="11" fill="#222222">119.637</text>
<line x1="736.36" y1="70" x2="736.36" y2="260" stroke="#d9d9d9" stroke-width="1"/>
<text x="736.36" y="278" text-anchor="middle" font-size="11" fill="#222222">139.013</text>
<line x1="767.27" y1="70" x2="767.27" y2="260" stroke="#d9d9d9" stroke-width="1"/>
<text x="767.27" y="278" text-anchor="middle" font-size="11" fill="#222222">158.388</text>
<line x1="798.18" y1="70" x2="798.18" y2="260" stroke="#d9d9d9" stroke-width="1"/>
<text x="798.18" y="278" text-anchor="middle" font-size="11" fill="#222222">177.764</text>
<line x1="829.09" y1="70" x2="829.09" y2="260" stroke="#d9d9d9" stroke-width="1"/>
<text x="829.09" y="278" text-anchor="middle" font-size="11" fill="#222222">197.14</text>
<line x1="860.00" y1="70" x2="860.00" y2="260" stroke="#d9d9d9" stroke-width="1"/>
<text x="860.00" y="278" text-anchor="middle" font-size="11" fill="#222222">216.515</text>
<line x1="520" y1="260" x2="860" y2="260" stroke="#333333" stroke-width="1.3"/>
<line x1="520" y1="70" x2="520" y2="260" stroke="#333333" stroke-width="1.3"/>
<text x="690.00" y="300" text-anchor="middle" font-size="12" fill="#222222">Total Zr concentration (mM)</text>
<text x="468" y="165.00" transform="rotate(-90 468 165.00)" text-anchor="middle" font-size="12" fill="#222222">Reach fraction</text>
<circle cx="520.00" cy="70.00" r="4.5" fill="#d95f02"/>
<circle cx="550.91" cy="70.00" r="4.5" fill="#d95f02"/>
<circle cx="581.82" cy="70.00" r="4.5" fill="#d95f02"/>
<circle cx="612.73" cy="70.00" r="4.5" fill="#d95f02"/>
<circle cx="643.64" cy="70.00" r="4.5" fill="#d95f02"/>
<circle cx="674.55" cy="70.00" r="4.5" fill="#d95f02"/>
<circle cx="705.45" cy="70.00" r="4.5" fill="#d95f02"/>
<circle cx="736.36" cy="70.00" r="4.5" fill="#d95f02"/>
<circle cx="767.27" cy="70.00" r="4.5" fill="#d95f02"/>
<circle cx="798.18" cy="70.00" r="4.5" fill="#d95f02"/>
<circle cx="829.09" cy="70.00" r="4.5" fill="#d95f02"/>
<circle cx="860.00" cy="70.00" r="4.5" fill="#d95f02"/>
<polyline fill="none" stroke="#d95f02" stroke-width="2.5" points="520.00,70.00 550.91,70.00 581.82,70.00 612.73,70.00 643.64,70.00 674.55,70.00 705.45,70.00 736.36,70.00 767.27,70.00 798.18,70.00 829.09,70.00 860.00,70.00"/>
<text x="90" y="334" font-size="15" font-weight="bold" fill="#222222">Mean Final Entities</text>
<line x1="90" y1="540.00" x2="430" y2="540.00" stroke="#d9d9d9" stroke-width="1"/>
<text x="80" y="544.00" text-anchor="end" font-size="11" fill="#222222">0.00</text>
<line x1="90" y1="492.50" x2="430" y2="492.50" stroke="#d9d9d9" stroke-width="1"/>
<text x="80" y="496.50" text-anchor="end" font-size="11" fill="#222222">25.29</text>
<line x1="90" y1="445.00" x2="430" y2="445.00" stroke="#d9d9d9" stroke-width="1"/>
<text x="80" y="449.00" text-anchor="end" font-size="11" fill="#222222">50.58</text>
<line x1="90" y1="397.50" x2="430" y2="397.50" stroke="#d9d9d9" stroke-width="1"/>
<text x="80" y="401.50" text-anchor="end" font-size="11" fill="#222222">75.88</text>
<line x1="90" y1="350.00" x2="430" y2="350.00" stroke="#d9d9d9" stroke-width="1"/>
<text x="80" y="354.00" text-anchor="end" font-size="11" fill="#222222">101.17</text>
<line x1="90.00" y1="350" x2="90.00" y2="540" stroke="#d9d9d9" stroke-width="1"/>
<text x="90.00" y="558" text-anchor="middle" font-size="11" fill="#222222">3.38305</text>
<line x1="120.91" y1="350" x2="120.91" y2="540" stroke="#d9d9d9" stroke-width="1"/>
<text x="120.91" y="558" text-anchor="middle" font-size="11" fill="#222222">22.7587</text>
<line x1="151.82" y1="350" x2="151.82" y2="540" stroke="#d9d9d9" stroke-width="1"/>
<text x="151.82" y="558" text-anchor="middle" font-size="11" fill="#222222">42.1344</text>
<line x1="182.73" y1="350" x2="182.73" y2="540" stroke="#d9d9d9" stroke-width="1"/>
<text x="182.73" y="558" text-anchor="middle" font-size="11" fill="#222222">61.51</text>
<line x1="213.64" y1="350" x2="213.64" y2="540" stroke="#d9d9d9" stroke-width="1"/>
<text x="213.64" y="558" text-anchor="middle" font-size="11" fill="#222222">80.8857</text>
<line x1="244.55" y1="350" x2="244.55" y2="540" stroke="#d9d9d9" stroke-width="1"/>
<text x="244.55" y="558" text-anchor="middle" font-size="11" fill="#222222">100.261</text>
<line x1="275.45" y1="350" x2="275.45" y2="540" stroke="#d9d9d9" stroke-width="1"/>
<text x="275.45" y="558" text-anchor="middle" font-size="11" fill="#222222">119.637</text>
<line x1="306.36" y1="350" x2="306.36" y2="540" stroke="#d9d9d9" stroke-width="1"/>
<text x="306.36" y="558" text-anchor="middle" font-size="11" fill="#222222">139.013</text>
<line x1="337.27" y1="350" x2="337.27" y2="540" stroke="#d9d9d9" stroke-width="1"/>
<text x="337.27" y="558" text-anchor="middle" font-size="11" fill="#222222">158.388</text>
<line x1="368.18" y1="350" x2="368.18" y2="540" stroke="#d9d9d9" stroke-width="1"/>
<text x="368.18" y="558" text-anchor="middle" font-size="11" fill="#222222">177.764</text>
<line x1="399.09" y1="350" x2="399.09" y2="540" stroke="#d9d9d9" stroke-width="1"/>
<text x="399.09" y="558" text-anchor="middle" font-size="11" fill="#222222">197.14</text>
<line x1="430.00" y1="350" x2="430.00" y2="540" stroke="#d9d9d9" stroke-width="1"/>
<text x="430.00" y="558" text-anchor="middle" font-size="11" fill="#222222">216.515</text>
<line x1="90" y1="540" x2="430" y2="540" stroke="#333333" stroke-width="1.3"/>
<line x1="90" y1="350" x2="90" y2="540" stroke="#333333" stroke-width="1.3"/>
<text x="260.00" y="580" text-anchor="middle" font-size="12" fill="#222222">Total Zr concentration (mM)</text>
<text x="38" y="445.00" transform="rotate(-90 38 445.00)" text-anchor="middle" font-size="12" fill="#222222">Final entities</text>
<circle cx="90.00" cy="352.11" r="4.5" fill="#d95f02"/>
<circle cx="120.91" cy="352.03" r="4.5" fill="#d95f02"/>
<circle cx="151.82" cy="352.19" r="4.5" fill="#d95f02"/>
<circle cx="182.73" cy="352.19" r="4.5" fill="#d95f02"/>
<circle cx="213.64" cy="352.03" r="4.5" fill="#d95f02"/>
<circle cx="244.55" cy="352.11" r="4.5" fill="#d95f02"/>
<circle cx="275.45" cy="352.03" r="4.5" fill="#d95f02"/>
<circle cx="306.36" cy="351.88" r="4.5" fill="#d95f02"/>
<circle cx="337.27" cy="352.11" r="4.5" fill="#d95f02"/>
<circle cx="368.18" cy="352.03" r="4.5" fill="#d95f02"/>
<circle cx="399.09" cy="352.03" r="4.5" fill="#d95f02"/>
<circle cx="430.00" cy="352.19" r="4.5" fill="#d95f02"/>
<polyline fill="none" stroke="#d95f02" stroke-width="2.5" points="90.00,352.11 120.91,352.03 151.82,352.19 182.73,352.19 213.64,352.03 244.55,352.11 275.45,352.03 306.36,351.88 337.27,352.11 368.18,352.03 399.09,352.03 430.00,352.19"/>
<text x="520" y="334" font-size="15" font-weight="bold" fill="#222222">Mean Prebound Fraction</text>
<line x1="520" y1="540.00" x2="860" y2="540.00" stroke="#d9d9d9" stroke-width="1"/>
<text x="510" y="544.00" text-anchor="end" font-size="11" fill="#222222">0.00</text>
<line x1="520" y1="492.50" x2="860" y2="492.50" stroke="#d9d9d9" stroke-width="1"/>
<text x="510" y="496.50" text-anchor="end" font-size="11" fill="#222222">0.07</text>
<line x1="520" y1="445.00" x2="860" y2="445.00" stroke="#d9d9d9" stroke-width="1"/>
<text x="510" y="449.00" text-anchor="end" font-size="11" fill="#222222">0.15</text>
<line x1="520" y1="397.50" x2="860" y2="397.50" stroke="#d9d9d9" stroke-width="1"/>
<text x="510" y="401.50" text-anchor="end" font-size="11" fill="#222222">0.22</text>
<line x1="520" y1="350.00" x2="860" y2="350.00" stroke="#d9d9d9" stroke-width="1"/>
<text x="510" y="354.00" text-anchor="end" font-size="11" fill="#222222">0.30</text>
<line x1="520.00" y1="350" x2="520.00" y2="540" stroke="#d9d9d9" stroke-width="1"/>
<text x="520.00" y="558" text-anchor="middle" font-size="11" fill="#222222">3.38305</text>
<line x1="550.91" y1="350" x2="550.91" y2="540" stroke="#d9d9d9" stroke-width="1"/>
<text x="550.91" y="558" text-anchor="middle" font-size="11" fill="#222222">22.7587</text>
<line x1="581.82" y1="350" x2="581.82" y2="540" stroke="#d9d9d9" stroke-width="1"/>
<text x="581.82" y="558" text-anchor="middle" font-size="11" fill="#222222">42.1344</text>
<line x1="612.73" y1="350" x2="612.73" y2="540" stroke="#d9d9d9" stroke-width="1"/>
<text x="612.73" y="558" text-anchor="middle" font-size="11" fill="#222222">61.51</text>
<line x1="643.64" y1="350" x2="643.64" y2="540" stroke="#d9d9d9" stroke-width="1"/>
<text x="643.64" y="558" text-anchor="middle" font-size="11" fill="#222222">80.8857</text>
<line x1="674.55" y1="350" x2="674.55" y2="540" stroke="#d9d9d9" stroke-width="1"/>
<text x="674.55" y="558" text-anchor="middle" font-size="11" fill="#222222">100.261</text>
<line x1="705.45" y1="350" x2="705.45" y2="540" stroke="#d9d9d9" stroke-width="1"/>
<text x="705.45" y="558" text-anchor="middle" font-size="11" fill="#222222">119.637</text>
<line x1="736.36" y1="350" x2="736.36" y2="540" stroke="#d9d9d9" stroke-width="1"/>
<text x="736.36" y="558" text-anchor="middle" font-size="11" fill="#222222">139.013</text>
<line x1="767.27" y1="350" x2="767.27" y2="540" stroke="#d9d9d9" stroke-width="1"/>
<text x="767.27" y="558" text-anchor="middle" font-size="11" fill="#222222">158.388</text>
<line x1="798.18" y1="350" x2="798.18" y2="540" stroke="#d9d9d9" stroke-width="1"/>
<text x="798.18" y="558" text-anchor="middle" font-size="11" fill="#222222">177.764</text>
<line x1="829.09" y1="350" x2="829.09" y2="540" stroke="#d9d9d9" stroke-width="1"/>
<text x="829.09" y="558" text-anchor="middle" font-size="11" fill="#222222">197.14</text>
<line x1="860.00" y1="350" x2="860.00" y2="540" stroke="#d9d9d9" stroke-width="1"/>
<text x="860.00" y="558" text-anchor="middle" font-size="11" fill="#222222">216.515</text>
<line x1="520" y1="540" x2="860" y2="540" stroke="#333333" stroke-width="1.3"/>
<line x1="520" y1="350" x2="520" y2="540" stroke="#333333" stroke-width="1.3"/>
<text x="690.00" y="580" text-anchor="middle" font-size="12" fill="#222222">Total Zr concentration (mM)</text>
<text x="468" y="445.00" transform="rotate(-90 468 445.00)" text-anchor="middle" font-size="12" fill="#222222">Prebound fraction</text>
<circle cx="520.00" cy="536.20" r="4.5" fill="#2a9d8f"/>
<circle cx="550.91" cy="515.27" r="4.5" fill="#2a9d8f"/>
<circle cx="581.82" cy="495.67" r="4.5" fill="#2a9d8f"/>
<circle cx="612.73" cy="477.27" r="4.5" fill="#2a9d8f"/>
<circle cx="643.64" cy="459.97" r="4.5" fill="#2a9d8f"/>
<circle cx="674.55" cy="443.67" r="4.5" fill="#2a9d8f"/>
<circle cx="705.45" cy="428.29" r="4.5" fill="#2a9d8f"/>
<circle cx="736.36" cy="413.76" r="4.5" fill="#2a9d8f"/>
<circle cx="767.27" cy="399.99" r="4.5" fill="#2a9d8f"/>
<circle cx="798.18" cy="386.95" r="4.5" fill="#2a9d8f"/>
<circle cx="829.09" cy="374.57" r="4.5" fill="#2a9d8f"/>
<circle cx="860.00" cy="362.79" r="4.5" fill="#2a9d8f"/>
<polyline fill="none" stroke="#2a9d8f" stroke-width="2.5" points="520.00,536.20 550.91,515.27 581.82,495.67 612.73,477.27 643.64,459.97 674.55,443.67 705.45,428.29 736.36,413.76 767.27,399.99 798.18,386.95 829.09,374.57 860.00,362.79"/>
</svg>